<?xml version="1.0" encoding="utf-8"?>
<!-- Generator: Adobe Illustrator 26.0.3, SVG Export Plug-In . SVG Version: 6.00 Build 0)  -->
<svg version="1.1" id="Layer_1" xmlns="http://www.w3.org/2000/svg" xmlns:xlink="http://www.w3.org/1999/xlink" x="0px" y="0px"
	 viewBox="0 0 16 16" style="enable-background:new 0 0 16 16;" xml:space="preserve">
<style type="text/css">
	.st0{fill:#3D007B;}
</style>
<g>
	<path class="st0" d="M8,3C5.3,3,3,5.2,3,8c0,2.8,2.2,5,5,5s5-2.2,5-5S10.7,3,8,3z M8,4.1c0.5,0,0.8,0.4,0.8,0.8S8.5,5.8,8,5.8
		C7.5,5.8,7.2,5.4,7.2,5C7.2,4.5,7.5,4.1,8,4.1z M10.6,6.5L8.7,7.1c-0.1,0-0.2,0.1-0.2,0.2c0,0.3,0,1,0.1,1.2c0.2,0.7,1,2.6,1,2.6
		c0.1,0.2,0,0.5-0.2,0.6c-0.1,0-0.1,0-0.2,0c-0.2,0-0.3-0.1-0.4-0.3L8,9.7l-0.9,1.8c-0.1,0.2-0.2,0.3-0.4,0.3c-0.1,0-0.1,0-0.2,0
		c-0.2-0.1-0.3-0.4-0.2-0.6c0,0,0.8-1.9,1-2.6c0.1-0.2,0.1-0.9,0.1-1.2c0-0.1-0.1-0.2-0.2-0.2L5.4,6.5C5.2,6.5,5,6.2,5.1,6
		c0.1-0.2,0.3-0.3,0.6-0.3c0,0,1.7,0.5,2.3,0.5c0.6,0,2.3-0.6,2.3-0.6c0.2-0.1,0.5,0.1,0.5,0.3C10.9,6.2,10.8,6.5,10.6,6.5z"/>
	<path class="st0" d="M8,0C3.6,0,0,3.6,0,8s3.6,8,8,8s8-3.6,8-8S12.4,0,8,0z M8,14c-3.3,0-6-2.7-6-6c0-3.3,2.7-6,6-6s6,2.7,6,6
		C14,11.3,11.3,14,8,14z"/>
</g>
</svg>
