<?xml version="1.0" encoding="utf-8"?>
<!-- Generator: Adobe Illustrator 26.0.3, SVG Export Plug-In . SVG Version: 6.00 Build 0)  -->
<svg version="1.1" id="Layer_1" xmlns="http://www.w3.org/2000/svg" xmlns:xlink="http://www.w3.org/1999/xlink" x="0px" y="0px"
	 viewBox="0 0 64 64" style="enable-background:new 0 0 64 64;" xml:space="preserve">
<style type="text/css">
	.st0{fill:#FFFFFF;}
</style>
<g>
	<path class="st0" d="M32,63.7C14.5,63.7,0.3,49.5,0.3,32S14.5,0.3,32,0.3S63.7,14.5,63.7,32S49.5,63.7,32,63.7z M32,5.1
		C17.1,5.1,5.1,17.1,5.1,32S17.1,58.9,32,58.9S58.9,46.9,58.9,32S46.9,5.1,32,5.1z"/>
	<path class="st0" d="M45.6,46.6c0,0-3.2-7-4.3-9.7c-1.1-2.7-2.1-3.1-3.5-3.1h-2.2c-0.9-1-2-1.7-3.2-2.3v-7.7c0-1.1-0.8-3.2-2.4-3.2
		s-1.7,0.2-4.5,2.4s-3,2.8-3,4.2v5.2c-2.7,1.9-4.3,4.9-4.3,8.2c0,5.5,4.5,10,10,10c4.8,0,9-3.5,9.8-8.2c0.5,1.5,1.5,4.1,2.2,6.1
		c1.1,3,3.2,2.7,4.4,2.1C45.8,50,46.3,48.2,45.6,46.6z M28.2,47.7c-3.9,0-7.1-3.2-7.1-7.1c0-1.9,0.8-3.7,2.1-5v2.2
		c0,2.1,1.4,3,2.4,3c1,0,2.5-0.8,2.5-2.9v-4.3c3.9,0,7.1,3.2,7.1,7.1C35.3,44.6,32.1,47.7,28.2,47.7z"/>
	<circle id="Ellipse_7013_00000131345723980058135320000012868223872965379978_" class="st0" cx="32.5" cy="15.8" r="3.7"/>
</g>
</svg>
