<svg xmlns="http://www.w3.org/2000/svg" width="402" height="91" viewBox="0 0 402 91"><g transform="translate(-899 -636)"><g transform="translate(899 636)" fill="none" stroke="#fff" stroke-width="10"><rect width="402" height="91" rx="10" stroke="none"/><rect x="5" y="5" width="392" height="81" rx="5" fill="none"/></g><path d="M-130.452,0a.822.822,0,0,1-.63-.273.877.877,0,0,1-.252-.609,1.561,1.561,0,0,1,.042-.378l10-27.006a1.624,1.624,0,0,1,.5-.8,1.526,1.526,0,0,1,1.05-.336h5.376a1.526,1.526,0,0,1,1.05.336,1.623,1.623,0,0,1,.5.8l10,27.006a1.561,1.561,0,0,1,.042.378.877.877,0,0,1-.252.609.822.822,0,0,1-.63.273h-4.368a1.262,1.262,0,0,1-.924-.294,1.482,1.482,0,0,1-.378-.546l-1.806-4.7h-11.844l-1.806,4.7a1.481,1.481,0,0,1-.378.546,1.262,1.262,0,0,1-.924.294Zm9.03-10.962h8.694l-4.326-12.1ZM-90.216.42a12.2,12.2,0,0,1-5.4-1.134,8.731,8.731,0,0,1-3.675-3.3,10.487,10.487,0,0,1-1.47-5.187q-.042-.672-.042-1.7t.042-1.7a10.7,10.7,0,0,1,1.449-5.229,8.569,8.569,0,0,1,3.675-3.3,12.331,12.331,0,0,1,5.418-1.134,13.1,13.1,0,0,1,4.788.777,10.1,10.1,0,0,1,3.234,1.953,8.244,8.244,0,0,1,1.869,2.457,5.989,5.989,0,0,1,.651,2.247.874.874,0,0,1-.273.735,1.007,1.007,0,0,1-.735.315h-4.494a.88.88,0,0,1-.651-.231,2.5,2.5,0,0,1-.441-.651,4.444,4.444,0,0,0-1.512-2.1,4.009,4.009,0,0,0-2.31-.63,3.8,3.8,0,0,0-2.982,1.218,5.841,5.841,0,0,0-1.176,3.78q-.042,1.638,0,2.982a5.965,5.965,0,0,0,1.2,3.78A3.8,3.8,0,0,0-90.09-4.452a3.966,3.966,0,0,0,2.352-.63,4.592,4.592,0,0,0,1.47-2.1,1.747,1.747,0,0,1,.42-.651.956.956,0,0,1,.672-.231h4.494a1.007,1.007,0,0,1,.735.315.874.874,0,0,1,.273.735,5.986,5.986,0,0,1-.4,1.68A7.57,7.57,0,0,1-81.207-3.36a9.177,9.177,0,0,1-2,1.869A10.183,10.183,0,0,1-86.163-.105,14.1,14.1,0,0,1-90.216.42Zm24.36,0a12.2,12.2,0,0,1-5.4-1.134,8.731,8.731,0,0,1-3.675-3.3A10.487,10.487,0,0,1-76.4-9.2q-.042-.672-.042-1.7t.042-1.7a10.7,10.7,0,0,1,1.449-5.229,8.569,8.569,0,0,1,3.675-3.3,12.331,12.331,0,0,1,5.418-1.134,13.1,13.1,0,0,1,4.788.777,10.1,10.1,0,0,1,3.234,1.953,8.244,8.244,0,0,1,1.869,2.457,5.989,5.989,0,0,1,.651,2.247.874.874,0,0,1-.273.735,1.007,1.007,0,0,1-.735.315h-4.494a.88.88,0,0,1-.651-.231,2.5,2.5,0,0,1-.441-.651,4.444,4.444,0,0,0-1.512-2.1,4.008,4.008,0,0,0-2.31-.63,3.8,3.8,0,0,0-2.982,1.218,5.841,5.841,0,0,0-1.176,3.78q-.042,1.638,0,2.982a5.965,5.965,0,0,0,1.2,3.78A3.8,3.8,0,0,0-65.73-4.452a3.966,3.966,0,0,0,2.352-.63,4.592,4.592,0,0,0,1.47-2.1,1.747,1.747,0,0,1,.42-.651.956.956,0,0,1,.672-.231h4.494a1.007,1.007,0,0,1,.735.315.874.874,0,0,1,.273.735,5.986,5.986,0,0,1-.4,1.68A7.57,7.57,0,0,1-56.847-3.36a9.177,9.177,0,0,1-2,1.869A10.183,10.183,0,0,1-61.8-.105,14.1,14.1,0,0,1-65.856.42Zm24.4,0a10.683,10.683,0,0,1-7.665-2.688q-2.835-2.688-3-7.812v-1.806a12.618,12.618,0,0,1,1.47-5.565A8.8,8.8,0,0,1-47-21.021a11.641,11.641,0,0,1,5.5-1.239,11.139,11.139,0,0,1,5.9,1.449,9.183,9.183,0,0,1,3.57,3.948,13.118,13.118,0,0,1,1.2,5.733v.966a.94.94,0,0,1-.315.714,1.043,1.043,0,0,1-.735.294H-45.612q0,.042,0,.147t0,.189a6.637,6.637,0,0,0,.525,2.457A4.314,4.314,0,0,0-43.7-4.578a3.521,3.521,0,0,0,2.163.672A4.325,4.325,0,0,0-39.816-4.2,3.809,3.809,0,0,0-38.7-4.914a5.361,5.361,0,0,0,.651-.714,2.2,2.2,0,0,1,.609-.525,1.9,1.9,0,0,1,.735-.105h4.368a1.036,1.036,0,0,1,.693.231.706.706,0,0,1,.231.651,3.648,3.648,0,0,1-.693,1.659A8,8,0,0,1-34.02-1.785,11.085,11.085,0,0,1-37.149-.21,13.466,13.466,0,0,1-41.454.42Zm-4.158-13.4h8.232v-.084a6.557,6.557,0,0,0-.483-2.625A3.959,3.959,0,0,0-39.27-17.43a3.856,3.856,0,0,0-2.226-.63,3.856,3.856,0,0,0-2.226.63,3.959,3.959,0,0,0-1.407,1.743,6.557,6.557,0,0,0-.483,2.625ZM-18.018.42a14.517,14.517,0,0,1-4.473-.609A10.149,10.149,0,0,1-25.515-1.68a7.037,7.037,0,0,1-1.722-1.785A3.5,3.5,0,0,1-27.846-5a.848.848,0,0,1,.294-.756,1.026,1.026,0,0,1,.672-.294h4.074a.793.793,0,0,1,.252.042.56.56,0,0,1,.252.21q.546.378,1.134.861a5.7,5.7,0,0,0,1.365.819,4.939,4.939,0,0,0,1.953.336A4.572,4.572,0,0,0-15.5-4.347a1.781,1.781,0,0,0,.966-1.617,1.844,1.844,0,0,0-.441-1.26,3.941,3.941,0,0,0-1.659-.924,32.312,32.312,0,0,0-3.612-.924,15.555,15.555,0,0,1-3.864-1.344A6.047,6.047,0,0,1-26.5-12.537a5.723,5.723,0,0,1-.8-3.087,5.52,5.52,0,0,1,1.029-3.15,7.625,7.625,0,0,1,3.045-2.5,11.424,11.424,0,0,1,5.04-.987,13.118,13.118,0,0,1,4.053.567,10.316,10.316,0,0,1,2.919,1.428A7.363,7.363,0,0,1-9.429-18.5a3.336,3.336,0,0,1,.651,1.575.844.844,0,0,1-.252.714.925.925,0,0,1-.672.294H-13.44a1.07,1.07,0,0,1-.378-.063.816.816,0,0,1-.294-.189,11.683,11.683,0,0,1-1.029-.777,5.664,5.664,0,0,0-1.239-.777,4.361,4.361,0,0,0-1.848-.336,3.246,3.246,0,0,0-2.121.609,1.909,1.909,0,0,0-.735,1.533,1.783,1.783,0,0,0,.378,1.092,3.361,3.361,0,0,0,1.554.924,26.225,26.225,0,0,0,3.57.882,13.422,13.422,0,0,1,4.536,1.512A6.461,6.461,0,0,1-8.631-9.177,5.746,5.746,0,0,1-7.9-6.342,5.607,5.607,0,0,1-9.072-2.835,7.612,7.612,0,0,1-12.495-.441,15.511,15.511,0,0,1-18.018.42ZM4.746.42A14.517,14.517,0,0,1,.273-.189,10.149,10.149,0,0,1-2.751-1.68,7.037,7.037,0,0,1-4.473-3.465,3.5,3.5,0,0,1-5.082-5a.848.848,0,0,1,.294-.756,1.026,1.026,0,0,1,.672-.294H-.042a.793.793,0,0,1,.252.042.56.56,0,0,1,.252.21q.546.378,1.134.861a5.7,5.7,0,0,0,1.365.819,4.939,4.939,0,0,0,1.953.336,4.572,4.572,0,0,0,2.352-.567,1.781,1.781,0,0,0,.966-1.617,1.844,1.844,0,0,0-.441-1.26,3.941,3.941,0,0,0-1.659-.924A32.311,32.311,0,0,0,2.52-9.072a15.555,15.555,0,0,1-3.864-1.344,6.047,6.047,0,0,1-2.394-2.121,5.723,5.723,0,0,1-.8-3.087,5.52,5.52,0,0,1,1.029-3.15,7.625,7.625,0,0,1,3.045-2.5,11.424,11.424,0,0,1,5.04-.987,13.118,13.118,0,0,1,4.053.567,10.316,10.316,0,0,1,2.919,1.428A7.363,7.363,0,0,1,13.335-18.5a3.336,3.336,0,0,1,.651,1.575.844.844,0,0,1-.252.714.925.925,0,0,1-.672.294H9.324a1.07,1.07,0,0,1-.378-.063.816.816,0,0,1-.294-.189,11.683,11.683,0,0,1-1.029-.777,5.664,5.664,0,0,0-1.239-.777,4.361,4.361,0,0,0-1.848-.336,3.246,3.246,0,0,0-2.121.609,1.909,1.909,0,0,0-.735,1.533,1.783,1.783,0,0,0,.378,1.092,3.361,3.361,0,0,0,1.554.924,26.225,26.225,0,0,0,3.57.882,13.422,13.422,0,0,1,4.536,1.512,6.461,6.461,0,0,1,2.415,2.331,5.746,5.746,0,0,1,.735,2.835,5.607,5.607,0,0,1-1.176,3.507A7.612,7.612,0,0,1,10.269-.441,15.511,15.511,0,0,1,4.746.42ZM19.908,0a.972.972,0,0,1-.714-.294A1.023,1.023,0,0,1,18.9-1.05V-20.79a1.023,1.023,0,0,1,.294-.756.972.972,0,0,1,.714-.294h4.2a1.023,1.023,0,0,1,.756.294,1.023,1.023,0,0,1,.294.756V-1.05a1.023,1.023,0,0,1-.294.756A1.023,1.023,0,0,1,24.108,0Zm-.126-25.2a.972.972,0,0,1-.714-.294,1.023,1.023,0,0,1-.294-.756v-3.36a1.1,1.1,0,0,1,.294-.777.94.94,0,0,1,.714-.315h4.41a1.056,1.056,0,0,1,.777.315,1.056,1.056,0,0,1,.315.777v3.36a.988.988,0,0,1-.315.756,1.1,1.1,0,0,1-.777.294ZM43.092.42A8.689,8.689,0,0,1,39.1-.4a7.886,7.886,0,0,1-2.6-2.079V-1.05a1.023,1.023,0,0,1-.294.756A1.023,1.023,0,0,1,35.448,0h-3.99A1.023,1.023,0,0,1,30.7-.294a1.023,1.023,0,0,1-.294-.756V-28.77a1.023,1.023,0,0,1,.294-.756,1.023,1.023,0,0,1,.756-.294h4.326a.972.972,0,0,1,.714.294,1.023,1.023,0,0,1,.294.756v9.156a8.057,8.057,0,0,1,2.6-1.911,8.575,8.575,0,0,1,3.7-.735,9.115,9.115,0,0,1,3.8.735,7.859,7.859,0,0,1,2.751,2.058,9.329,9.329,0,0,1,1.743,3.129,13.232,13.232,0,0,1,.651,3.99q.042.756.042,1.407t-.042,1.449a14.51,14.51,0,0,1-.693,4.053,9.5,9.5,0,0,1-1.722,3.15,7.244,7.244,0,0,1-2.73,2.016A9.6,9.6,0,0,1,43.092.42ZM41.2-4.62a4.111,4.111,0,0,0,2.52-.693A3.805,3.805,0,0,0,45.045-7.14a9.158,9.158,0,0,0,.483-2.478,20.2,20.2,0,0,0,0-2.6,9.158,9.158,0,0,0-.483-2.478,3.805,3.805,0,0,0-1.323-1.827,4.111,4.111,0,0,0-2.52-.693,4.146,4.146,0,0,0-2.457.672,4.3,4.3,0,0,0-1.428,1.7,5.6,5.6,0,0,0-.525,2.2q-.042.756-.042,1.554t.042,1.6a8,8,0,0,0,.5,2.352,3.99,3.99,0,0,0,1.386,1.806A4.135,4.135,0,0,0,41.2-4.62ZM57.54,0a.972.972,0,0,1-.714-.294,1.023,1.023,0,0,1-.294-.756V-20.79a1.023,1.023,0,0,1,.294-.756.972.972,0,0,1,.714-.294h4.2a1.023,1.023,0,0,1,.756.294,1.023,1.023,0,0,1,.294.756V-1.05a1.023,1.023,0,0,1-.294.756A1.023,1.023,0,0,1,61.74,0Zm-.126-25.2a.972.972,0,0,1-.714-.294,1.023,1.023,0,0,1-.294-.756v-3.36a1.1,1.1,0,0,1,.294-.777.94.94,0,0,1,.714-.315h4.41a1.056,1.056,0,0,1,.777.315,1.056,1.056,0,0,1,.315.777v3.36a.988.988,0,0,1-.315.756,1.1,1.1,0,0,1-.777.294ZM69.09,0a1.023,1.023,0,0,1-.756-.294,1.023,1.023,0,0,1-.294-.756V-28.77a1.023,1.023,0,0,1,.294-.756,1.023,1.023,0,0,1,.756-.294h4.2a.972.972,0,0,1,.714.294,1.023,1.023,0,0,1,.294.756V-1.05A1.023,1.023,0,0,1,74-.294.972.972,0,0,1,73.29,0ZM80.6,0a.972.972,0,0,1-.714-.294,1.023,1.023,0,0,1-.294-.756V-20.79a1.023,1.023,0,0,1,.294-.756.972.972,0,0,1,.714-.294h4.2a1.023,1.023,0,0,1,.756.294,1.023,1.023,0,0,1,.294.756V-1.05a1.023,1.023,0,0,1-.294.756A1.023,1.023,0,0,1,84.8,0Zm-.126-25.2a.972.972,0,0,1-.714-.294,1.023,1.023,0,0,1-.294-.756v-3.36a1.1,1.1,0,0,1,.294-.777.94.94,0,0,1,.714-.315h4.41a1.056,1.056,0,0,1,.777.315,1.056,1.056,0,0,1,.315.777v3.36a.988.988,0,0,1-.315.756,1.1,1.1,0,0,1-.777.294ZM101.6,0a10.479,10.479,0,0,1-4.452-.861,5.868,5.868,0,0,1-2.793-2.667,9.723,9.723,0,0,1-.945-4.536v-8.82H90.132a1.023,1.023,0,0,1-.756-.294,1.023,1.023,0,0,1-.294-.756V-20.79a1.023,1.023,0,0,1,.294-.756,1.023,1.023,0,0,1,.756-.294h3.276v-6.93a.988.988,0,0,1,.315-.756,1.043,1.043,0,0,1,.735-.294h4.116a1.023,1.023,0,0,1,.756.294,1.023,1.023,0,0,1,.294.756v6.93h5.25a.972.972,0,0,1,.714.294,1.023,1.023,0,0,1,.294.756v2.856a1.023,1.023,0,0,1-.294.756.972.972,0,0,1-.714.294h-5.25v8.316a4.685,4.685,0,0,0,.567,2.5,2.168,2.168,0,0,0,2,.9h3.066a.972.972,0,0,1,.714.294.972.972,0,0,1,.294.714V-1.05a1.023,1.023,0,0,1-.294.756.972.972,0,0,1-.714.294ZM113.9,7.98a.877.877,0,0,1-.609-.252.822.822,0,0,1-.273-.63.9.9,0,0,1,.042-.231q.042-.147.126-.357l3.276-7.854L108.4-20.37a1.644,1.644,0,0,1-.126-.546,1.117,1.117,0,0,1,.294-.651.822.822,0,0,1,.63-.273h4.074a1.039,1.039,0,0,1,.8.273,2,2,0,0,1,.378.567l5.208,13.02L124.992-21a2.242,2.242,0,0,1,.42-.588,1.091,1.091,0,0,1,.8-.252h3.99a.889.889,0,0,1,.651.273.843.843,0,0,1,.273.609,1.589,1.589,0,0,1-.168.588L119.07,7.14a1.517,1.517,0,0,1-.4.588,1.171,1.171,0,0,1-.819.252Z" transform="translate(1099 695)" fill="#fff"/></g></svg>