<?xml version="1.0" encoding="utf-8"?>
<!-- Generator: Adobe Illustrator 26.0.3, SVG Export Plug-In . SVG Version: 6.00 Build 0)  -->
<svg version="1.1" id="Layer_1" xmlns="http://www.w3.org/2000/svg" xmlns:xlink="http://www.w3.org/1999/xlink" x="0px" y="0px"
	 viewBox="0 0 64 64" style="enable-background:new 0 0 64 64;" xml:space="preserve">
<style type="text/css">
	.st0{fill:#FFFFFF;}
</style>
<g>
	<path class="st0" d="M32,64C14.4,64,0,49.6,0,32S14.4,0,32,0s32,14.4,32,32S49.6,64,32,64z M32,4.9C17,4.9,4.9,17,4.9,32
		S17,59.1,32,59.1S59.1,47,59.1,32S47,4.9,32,4.9z"/>
	<path class="st0" d="M47.6,42.1l-7.6-7.6c-0.5-0.5-1.1-0.7-1.9-0.7h-5.3V33h5.7c1.1,0,2.3-0.5,2.9-1.3c0.7-0.8,1-1.7,1-2.6
		c0-2.2-1.8-3.9-3.9-3.9h-5.7V25c0-1.2-0.6-2.1-1-2.7l-0.1-0.1c-0.1,0-0.1-0.1-0.2-0.2c1.7-0.9,2.7-2.6,2.7-4.5
		c0-2.8-2.3-5.1-5.1-5.1c-2.9,0-5.1,2.3-5.1,5.1c0,1.8,0.9,3.4,2.4,4.4c0,0-0.1,0-0.1,0.1C26.1,22,26,22,26,22.1
		c-0.7,0.7-1.1,1.7-1.1,2.8v1c-0.6,0.1-1.3,0.3-1.9,0.6c-0.3,0.1-0.5,0.2-0.8,0.4c-0.1,0.1-0.3,0.2-0.4,0.2
		c-0.1,0.1-0.3,0.2-0.4,0.3c-5.2,3.4-7.2,10.3-4.9,16.1c2.1,5.1,6.9,8.4,12.5,8.4c1.6,0,3.2-0.3,4.8-0.9c2.2-0.8,4.3-2.3,5.9-4.5
		c0.2-0.2,0.3-0.5,0.4-0.7l1.6,1.6c0.5,0.5,1.6,1.1,2.8,1.1c1.1,0,2.3-0.5,2.9-1.3C48.7,45.7,48.8,43.6,47.6,42.1z M29.1,14.9
		c1.3,0,2.4,1.1,2.4,2.4s-1,2.4-2.4,2.4s-2.4-1-2.4-2.4S27.8,14.9,29.1,14.9z M28.2,41.3h7.7l0.4,0.4c-0.1,0.1-0.1,0.2-0.2,0.2
		c-0.1,0.1-0.2,0.3-0.4,0.5c-0.1,0.1-0.2,0.2-0.3,0.3c-0.1,0.1-0.1,0.1-0.2,0.2c-0.1,0.1-0.1,0.1-0.2,0.2c0,0.1-0.1,0.1-0.1,0.2
		l-0.1,0.1c-2.4,2.8-6.6,3.5-9.8,1.7c-3.6-2.1-4.9-6.8-2.9-10.6c0.7-1.3,1.6-2.2,2.7-2.7v6.4C25,40,26.4,41.3,28.2,41.3z M37.7,45
		c-1.3,1.7-2.9,2.9-4.7,3.6c-1.3,0.5-2.7,0.8-4,0.8c-1.5,0-2.9-0.3-4.3-0.9c-2.6-1.1-4.7-3.3-5.8-6c-2-5,0.1-10.8,4.7-13.5l0.4-0.2
		v0.7l-0.1,0.1c-1.5,0.9-2.8,2.2-3.7,3.7c-2.8,4.9-1.1,11.3,3.8,14c4.4,2.5,10.4,1.3,13.4-2.7l0.2-0.2l0.5,0.5L37.7,45z M45.4,45.3
		L45.4,45.3c-0.2,0.3-0.5,0.4-0.8,0.4s-0.6-0.2-0.8-0.4l-6.6-6.6l0,0h-8.9c-0.3,0-0.5-0.2-0.5-0.5V24.8c0-0.3,0.1-0.6,0.3-0.8
		c0.3-0.2,0.6-0.3,0.8-0.3c0.8,0,1.2,0.6,1.2,1.2v2.9h8.4c0.6,0,1.2,0.5,1.2,1.2c0,0.3-0.2,0.6-0.4,0.8c-0.2,0.3-0.5,0.3-0.8,0.3H30
		v6.2h8l7.3,7.3l0.1,0.1C45.9,44.2,45.8,44.9,45.4,45.3z"/>
</g>
</svg>
