<?xml version="1.0" encoding="utf-8"?>
<!-- Generator: Adobe Illustrator 26.0.3, SVG Export Plug-In . SVG Version: 6.00 Build 0)  -->
<svg version="1.1" id="Layer_1" xmlns="http://www.w3.org/2000/svg" xmlns:xlink="http://www.w3.org/1999/xlink" x="0px" y="0px"
	 viewBox="0 0 64 64" style="enable-background:new 0 0 64 64;" xml:space="preserve">
<style type="text/css">
	.st0{fill:#FFFFFF;}
</style>
<g>
	<path class="st0" d="M32,64C14.4,64,0,49.6,0,32S14.4,0,32,0s32,14.3,32,32S49.6,64,32,64z M32,4.9C17,4.9,4.9,17,4.9,32
		S17,59.1,32,59.1S59.1,47,59.1,32S47,4.9,32,4.9z"/>
	<path class="st0" d="M44.5,27.2L44.5,27.2l-3,0.1l1.2-1.4c0.1-0.1,0.1-0.1,0.1-0.2c0.7-1,1-2.2,0.9-3.5c2.6-0.6,4.5-3,4.5-5.8
		c0-3.3-2.7-6-6-6c-3.1,0-5.6,2.3-6,5.3c-2.6-1.5-5.1-2.9-5.1-3c-1.6-0.9-3.6-0.8-5.1,0.4l-0.1,0.1L20.8,18l-0.1,0.1
		c-1.5,1.5-1.5,3.2-1.3,4c0.3,1.6,1.5,2.9,3,3.4c1,0.4,2.5,0.5,4.1-0.7c0.1,0,0.1-0.1,0.2-0.2l0.2-0.2l-1.3,1.4
		c-1.8,0.4-3.5,1.2-5,2.2l0,0c0,0-0.1,0.1-0.3,0.2c-0.1,0.1-0.2,0.2-0.3,0.2c-0.2,0.2-0.4,0.3-0.5,0.5c-0.7,0.6-1.5,1.6-2.3,2.7
		c-0.1,0.1-0.1,0.1-0.2,0.2c-0.3,0.4-0.5,0.9-0.7,1.3c0,0.1-0.1,0.1-0.1,0.2c-0.9,1.9-1.4,4-1.4,6c0,5.4,3,10.1,7.8,12.4
		c1.9,0.9,4,1.4,6.1,1.4c1.1,0,2.2-0.1,3.3-0.4l0,0c0.1,0,0.2-0.1,0.3-0.1c1-0.3,1.9-0.6,2.8-1.1c4.2-2.1,5.4-5.1,5.4-5.1l0.1,0.1
		c0.2,0.2,0.4,0.3,0.6,0.5c1.5,0.9,3.2,0.9,4.6,0.2c1.4-0.7,2.2-2.1,2.3-3.7l1-11.7c0-0.1,0-0.2,0-0.3v-0.2
		C49,29.2,47,27.2,44.5,27.2z M42.2,13.5c1.6,0,3,1.3,3,3c0,1.7-1.3,3-3,3c-1.6,0-3-1.3-3-3S40.5,13.5,42.2,13.5z M23.9,49.2
		c-3.8-1.8-6.1-5.5-6.1-9.7c0-2.1,0.7-4.2,1.8-5.9l1.9,1.8c-0.7,1.3-1.1,2.7-1.1,4.1c0,2.2,0.8,4.3,2.4,5.9c1.6,1.6,3.7,2.5,5.9,2.5
		c1.5,0,2.9-0.4,4.1-1.1l1.8,1.8C31.4,50.6,27.4,50.9,23.9,49.2z M34.1,42.1L34.1,42.1C34.1,42.1,34.1,42.2,34.1,42.1
		c-0.3,0.5-0.6,0.9-0.9,1.3c-0.5,0.6-1.1,1.1-1.1,1.1c-1,0.7-2.2,1.1-3.4,1.1c-1.6,0-3.1-0.6-4.3-1.8c-1.1-1.1-1.7-2.6-1.7-4.3
		c0-0.5,0-1,0.1-1.5c0-0.1,0-0.2,0.1-0.3c0.2-0.5,0.4-1.1,0.8-1.6l0.3-0.4c0.3-0.4,0.5-0.6,0.8-0.9c1.1-0.9,2.4-1.4,3.8-1.4
		c2.4,0,4.4,1.4,5.4,3.5C34.9,38.7,34.9,40.5,34.1,42.1z M46,31.7L46,31.7l-1,11.9c0,0.6-0.3,1-0.7,1.2c-0.5,0.3-1.1,0.2-1.6-0.1
		c-0.2-0.2-0.6-0.6-0.5-1.3l0.9-10.2l-5.3,0.3l0.6,1.2c1.8,3.7,1.3,8.3-1.3,11.5l-1.7-1.7c1.8-2.4,2.2-5.6,0.9-8.6
		c-1.4-3-4.3-4.9-7.6-4.9c-1.8,0-3.6,0.6-5,1.7l-1.8-1.8c1.4-1.1,3.2-1.9,5-2.2h0.3l6.5-7.5l-4.6-2.7l-4.4,3.9
		c-0.4,0.3-0.8,0.5-1.3,0.3c-0.6-0.2-1-0.7-1.1-1.2c-0.1-0.5,0.1-0.9,0.5-1.3l5.1-4.6c0.5-0.4,1.2-0.5,1.7-0.2
		c4,2.3,10,5.8,10.4,6.1c0.8,0.5,1,1.7,0.4,2.5l-5.9,6.7l10-0.5C45.3,30.2,46,30.8,46,31.7L46,31.7z"/>
</g>
</svg>
