<?xml version="1.0" encoding="utf-8"?>
<!-- Generator: Adobe Illustrator 26.0.3, SVG Export Plug-In . SVG Version: 6.00 Build 0)  -->
<svg version="1.1" id="Layer_1" xmlns="http://www.w3.org/2000/svg" xmlns:xlink="http://www.w3.org/1999/xlink" x="0px" y="0px"
	 viewBox="0 0 64 64" style="enable-background:new 0 0 64 64;" xml:space="preserve">
<style type="text/css">
	.st0{fill:#FFFFFF;}
</style>
<g>
	<path class="st0" d="M32,64C14.4,64,0,49.6,0,32S14.4,0,32,0s32,14.3,32,32S49.6,64,32,64z M32,4.9C17,4.9,4.9,17,4.9,32
		S17,59.1,32,59.1S59.1,47,59.1,32S47,4.9,32,4.9z"/>
	<g>
		<path class="st0" d="M47.6,42.5c-0.5-1.1-1.8-1.6-2.9-1.1l-1.5,0.7L39,34.7c-0.3-0.7-1.1-1.1-1.9-1.1h-3.6v-2.4h2
			c1.2,0,2.2-1,2.2-2.2s-1-2.2-2.2-2.2h-2v-1.3c0-1.2-1-2.2-2.2-2.2c-0.9,0-1.7,0.6-2,1.4c-5.3,0.3-10,3.7-12,8.6
			c-1.5,3.4-1.5,7.2-0.1,10.7c1.4,3.5,4.1,6.2,7.5,7.7c1.7,0.7,3.6,1.1,5.5,1.1c4.5,0,8.8-2.2,11.3-5.8c0.2,0.1,0.4,0.1,0.7,0.1H43
			l3.5-1.7C47.5,45,48,43.6,47.6,42.5z M26.5,47.5c-5-2.1-7.2-7.6-5.1-12.6c1.3-3.2,4.4-5.4,7.8-5.8v6.7c0,1.2,1,2.2,2.2,2.2h4.5
			l2.8,5.1C36.4,47.5,31.2,49.5,26.5,47.5z"/>
		<path class="st0" d="M31.5,11.2c-3.1,0-5.5,2.5-5.5,5.5s2.5,5.5,5.5,5.5s5.5-2.5,5.5-5.5S34.4,11.2,31.5,11.2z M31.5,19.1
			c-1.4,0-2.4-1-2.4-2.4c0-1.5,1.2-2.4,2.4-2.4s2.4,0.9,2.4,2.4S32.8,19.1,31.5,19.1z"/>
	</g>
</g>
</svg>
