<svg xmlns="http://www.w3.org/2000/svg" width="520.531" height="81.296" viewBox="0 0 520.531 81.296">
  <g id="Group_23189" data-name="Group 23189" transform="translate(-4767.989 2551.427)">
    <circle id="Ellipse_287" data-name="Ellipse 287" cx="40.648" cy="40.648" r="40.648" transform="translate(4767.989 -2551.427)" fill="#420083"/>
    <path id="Path_7467" data-name="Path 7467" d="M34.38,0A34.394,34.394,0,1,1,10.072,10.073,34.394,34.394,0,0,1,34.38,0Zm-.218,41.511-5,13.839a2.752,2.752,0,0,1-1.443,1.583A2.8,2.8,0,0,1,24,55.59a2.832,2.832,0,0,1-.1-2.149l3.491-9.667a14.235,14.235,0,0,0,.654-2.239,23.446,23.446,0,0,0,.3-2.361c.134-1.416.229-2.949.3-4.421s.125-2.9.163-4.08c.05-1.472-.346-1.567-1.527-1.846l-.25-.056-10.073-1.9a2.8,2.8,0,1,1,1.018-5.484L28.8,23.421c.431.039.85.09,1.293.14a32.187,32.187,0,0,0,4.017.3,45.275,45.275,0,0,0,5-.353c.5-.056.979-.118,1.455-.163l10.212-1.914a2.764,2.764,0,0,1,2.848,4.281v.034a2.8,2.8,0,0,1-1.8,1.169l-9.782,1.836c-.325.073-.615.125-.875.163-1.018.174-1.522.263-1.461,1.712.045,1.058.174,2.323.341,3.643.2,1.55.453,3.2.722,4.7a22.945,22.945,0,0,0,.559,2.546c.224.76.441,1.538.778,2.474l3.409,9.457a2.8,2.8,0,1,1-5.253,1.909l-5.02-13.814-.559-1.024-.559,1Zm.218-29.949a4.942,4.942,0,1,1-3.487,1.446,4.942,4.942,0,0,1,3.487-1.446ZM54.722,14.04a28.774,28.774,0,1,0,8.393,20.341A28.774,28.774,0,0,0,54.722,14.04Z" transform="translate(4774.238 -2545.183)" fill="#fff"/>
    <g id="Group_23188" data-name="Group 23188">
      <g id="Group_21779" data-name="Group 21779" transform="translate(4859.951 -2500.302)">
        <g id="Group_21778" data-name="Group 21778" transform="translate(0 0)">
          <path id="Path_23466" data-name="Path 23466" d="M75.2,56.009a.443.443,0,0,1-.5-.5V42a.443.443,0,0,1,.5-.5h5.253a5.8,5.8,0,0,1,2.626.5,4.159,4.159,0,0,1,1.751,1.5,4.927,4.927,0,0,1,.625,2.5,5.288,5.288,0,0,1-.625,2.5,4.159,4.159,0,0,1-1.751,1.5,5.8,5.8,0,0,1-2.626.5H76.827v5.128a.443.443,0,0,1-.5.5H75.2Zm1.626-7.379h3.627A3.713,3.713,0,0,0,82.705,48a3.043,3.043,0,0,0,0-4,3.184,3.184,0,0,0-2.376-.75H76.7V48.63Z" transform="translate(-74.697 -40.996)"/>
          <path id="Path_23467" data-name="Path 23467" d="M89.578,55.531a5.813,5.813,0,0,1-2.626-.625,4.065,4.065,0,0,1-1.626-1.626A5.173,5.173,0,0,1,84.7,50.9V49.153a5.693,5.693,0,0,1,.625-2.5,3.421,3.421,0,0,1,1.626-1.626,5.828,5.828,0,0,1,5.253,0,4.065,4.065,0,0,1,1.626,1.626,5.288,5.288,0,0,1,.625,2.5V50.9a4.79,4.79,0,0,1-.625,2.376A3.421,3.421,0,0,1,92.2,54.906,5.813,5.813,0,0,1,89.578,55.531Zm0-1.626a2.333,2.333,0,0,0,2-.875,4.127,4.127,0,0,0,.875-2.376v-1.5a3.424,3.424,0,0,0-.875-2.376,2.952,2.952,0,0,0-2-.875,2.333,2.333,0,0,0-2,.876,4.127,4.127,0,0,0-.875,2.376v1.5a2.942,2.942,0,0,0,.875,2.376A2.192,2.192,0,0,0,89.578,53.905Z" transform="translate(-72.189 -40.268)"/>
          <path id="Path_23468" data-name="Path 23468" d="M97.327,55.282c-.125,0-.375,0-.375-.125-.125-.125-.125-.25-.25-.375l-3-9.63V44.9c0-.125,0-.25.125-.25a.388.388,0,0,1,.25-.125h.876a.459.459,0,0,1,.375.125c.125.125.125.125.125.25l2.376,7.754,2.5-7.754a.437.437,0,0,1,.125-.25.459.459,0,0,1,.375-.125h.75c.125,0,.375,0,.375.125a.388.388,0,0,1,.125.25l2.5,7.754,2.251-7.879c0-.125.125-.125.125-.25a.459.459,0,0,1,.375-.125h.875c.125,0,.25,0,.25.125.125.125.125.125.125.25v.25l-2.877,9.63c0,.125-.125.25-.25.375s-.25.125-.5.125h-.75a.75.75,0,0,1-.5-.125c-.125-.125-.25-.25-.25-.375l-2.376-7.379L98.7,54.656c0,.125-.125.25-.25.375s-.25.125-.5.125h-.625Z" transform="translate(-69.932 -40.269)"/>
          <path id="Path_23469" data-name="Path 23469" d="M111.753,55.606a4.42,4.42,0,0,1-3.377-1.376A5.586,5.586,0,0,1,107,50.6V49.1a5.813,5.813,0,0,1,.625-2.626,5.451,5.451,0,0,1,1.626-1.751,5.288,5.288,0,0,1,2.5-.625,5.813,5.813,0,0,1,2.626.625,4.675,4.675,0,0,1,1.626,1.876,6.951,6.951,0,0,1,.5,2.877v.375a.443.443,0,0,1-.5.5h-7.129v.25a3.462,3.462,0,0,0,.375,1.626,3.176,3.176,0,0,0,1,1.251,2.681,2.681,0,0,0,1.5.5A3.7,3.7,0,0,0,113,53.73a1.924,1.924,0,0,0,.75-.5.67.67,0,0,0,.375-.5l.25-.25h1.376a.459.459,0,0,1,.375.125c.125.125.125.125.125.375a1.081,1.081,0,0,1-.375.75,5.778,5.778,0,0,1-.875.875,13.643,13.643,0,0,1-1.376.75,7.57,7.57,0,0,1-1.876.25ZM109,49.228h5.628a3.462,3.462,0,0,0-.375-1.626,2.207,2.207,0,0,0-1-1.126,2.97,2.97,0,0,0-1.5-.375,2.668,2.668,0,0,0-1.5.375,2.953,2.953,0,0,0-1,1.126,4.9,4.9,0,0,0-.25,1.626Z" transform="translate(-66.598 -40.344)"/>
          <path id="Path_23470" data-name="Path 23470" d="M117.2,55.257a.443.443,0,0,1-.5-.5V45a.443.443,0,0,1,.5-.5h1a.443.443,0,0,1,.5.5v.875a1.775,1.775,0,0,1,1.126-1,4,4,0,0,1,1.751-.375h.75a.443.443,0,0,1,.5.5v.876a.443.443,0,0,1-.5.5h-1.251a2.171,2.171,0,0,0-2.376,2.376v6.128a.443.443,0,0,1-.5.5h-1Z" transform="translate(-64.167 -40.244)"/>
          <path id="Path_23471" data-name="Path 23471" d="M127.253,55.606a4.42,4.42,0,0,1-3.377-1.376A5.586,5.586,0,0,1,122.5,50.6V49.1a5.813,5.813,0,0,1,.625-2.626,5.45,5.45,0,0,1,1.626-1.751,5.288,5.288,0,0,1,2.5-.625,5.813,5.813,0,0,1,2.626.625,4.675,4.675,0,0,1,1.626,1.876,6.951,6.951,0,0,1,.5,2.877v.375a.443.443,0,0,1-.5.5h-7.129v.25a3.462,3.462,0,0,0,.375,1.626,3.176,3.176,0,0,0,1,1.251,2.681,2.681,0,0,0,1.5.5,3.7,3.7,0,0,0,1.251-.25,1.924,1.924,0,0,0,.75-.5.67.67,0,0,0,.375-.5l.25-.25h1.376a.459.459,0,0,1,.375.125c.125.125.125.125.125.375a1.081,1.081,0,0,1-.375.75,5.778,5.778,0,0,1-.875.876,13.639,13.639,0,0,1-1.376.75A9.653,9.653,0,0,1,127.253,55.606Zm-2.877-6.379H130a3.462,3.462,0,0,0-.375-1.626,2.207,2.207,0,0,0-1-1.126,2.97,2.97,0,0,0-1.5-.375,2.668,2.668,0,0,0-1.5.375,2.953,2.953,0,0,0-1,1.126,4.9,4.9,0,0,0-.25,1.626Z" transform="translate(-62.712 -40.344)"/>
          <path id="Path_23472" data-name="Path 23472" d="M136.177,56.309a5.185,5.185,0,0,1-2-.375,3.976,3.976,0,0,1-2.126-2.752,9.653,9.653,0,0,1-.25-1.876V50.056a9.654,9.654,0,0,1,.25-1.876,3.877,3.877,0,0,1,.75-1.626,3.058,3.058,0,0,1,1.376-1.126,4.763,4.763,0,0,1,2-.375,4.385,4.385,0,0,1,2,.375,3.91,3.91,0,0,1,1.376,1.126V41.8a.443.443,0,0,1,.5-.5h1a.443.443,0,0,1,.5.5V55.559a.443.443,0,0,1-.5.5h-.875a.443.443,0,0,1-.5-.5v-.875a3.058,3.058,0,0,1-1.376,1.126A5.892,5.892,0,0,1,136.177,56.309Zm.375-1.751a2.126,2.126,0,0,0,1.626-.5,2.859,2.859,0,0,0,.876-1.251,6.6,6.6,0,0,0,.375-1.5v-1.5a2.521,2.521,0,0,0-.375-1.376,2.208,2.208,0,0,0-1-1.126,3.127,3.127,0,0,0-1.626-.5,2.126,2.126,0,0,0-1.626.5,2.294,2.294,0,0,0-.875,1.251,6.337,6.337,0,0,0-.25,1.626v1.251a6.337,6.337,0,0,0,.25,1.626,2.859,2.859,0,0,0,.875,1.251A6.519,6.519,0,0,0,136.553,54.558Z" transform="translate(-60.38 -41.046)"/>
          <path id="Path_23473" data-name="Path 23473" d="M151.4,56.309a3.832,3.832,0,0,1-2.126-.5,3.91,3.91,0,0,1-1.376-1.126v.875a.443.443,0,0,1-.5.5h-1a.443.443,0,0,1-.5-.5V41.8a.443.443,0,0,1,.5-.5h1a.443.443,0,0,1,.5.5v4.753a6.635,6.635,0,0,1,1.376-1.126,4.763,4.763,0,0,1,2-.375,5.185,5.185,0,0,1,2,.375,3.976,3.976,0,0,1,2.126,2.752,9.653,9.653,0,0,1,.25,1.876v1.251a9.658,9.658,0,0,1-.25,1.876,6.467,6.467,0,0,1-.75,1.626,3.058,3.058,0,0,1-1.376,1.126A4.178,4.178,0,0,1,151.4,56.309Zm-.5-1.751a2.647,2.647,0,0,0,1.751-.5,2.294,2.294,0,0,0,.875-1.251,6.337,6.337,0,0,0,.25-1.626V49.931a6.338,6.338,0,0,0-.25-1.626,2.859,2.859,0,0,0-.875-1.251,3.237,3.237,0,0,0-1.751-.5,2.306,2.306,0,0,0-1.626.5,4.315,4.315,0,0,0-1,1.126,3.26,3.26,0,0,0-.375,1.376v1.5a3.331,3.331,0,0,0,.375,1.5,4.491,4.491,0,0,0,.876,1.251,2.195,2.195,0,0,0,1.751.75Z" transform="translate(-56.846 -41.046)"/>
          <path id="Path_23474" data-name="Path 23474" d="M157.652,59.134c-.125,0-.25,0-.25-.125-.125-.125-.125-.125-.125-.25v-.125a.388.388,0,0,1,.125-.25l1.626-3.752-4-9.38a.459.459,0,0,1-.125-.375c0-.125,0-.25.125-.25.125-.125.125-.125.25-.125h1a.459.459,0,0,1,.375.125c.125.125.125.125.125.25l3.127,7.5,3.252-7.5c0-.125.125-.125.125-.25a.459.459,0,0,1,.375-.125h1c.125,0,.25,0,.25.125.125.125.125.125.125.25a.459.459,0,0,1-.125.375l-5.753,13.633c0,.125-.125.125-.125.25a.459.459,0,0,1-.375.125h-1Z" transform="translate(-54.59 -40.244)"/>
          <path id="Path_23475" data-name="Path 23475" d="M173.428,56.283a6.834,6.834,0,0,1-3-.5,3.865,3.865,0,0,1-1.876-1.5,5.9,5.9,0,0,1-.75-1.876c0-.125,0-.25.125-.25a.459.459,0,0,1,.375-.125h1a.459.459,0,0,1,.375.125c.125.125.125.125.125.25a3.745,3.745,0,0,0,.5,1,1.821,1.821,0,0,0,1.126.75,4.176,4.176,0,0,0,1.876.375,4.474,4.474,0,0,0,2.626-.625,2.189,2.189,0,0,0,.875-1.751,1.219,1.219,0,0,0-.5-1.126,2.837,2.837,0,0,0-1.376-.75,18.137,18.137,0,0,0-2.376-.75,9.452,9.452,0,0,1-2.5-1,5,5,0,0,1-1.5-1.251,3.173,3.173,0,0,1-.5-2,3.78,3.78,0,0,1,.625-2,3.93,3.93,0,0,1,1.751-1.376,7.4,7.4,0,0,1,5-.125,6.738,6.738,0,0,1,1.626.875,4.9,4.9,0,0,1,1,1.251,2.8,2.8,0,0,1,.375,1.251c0,.125,0,.25-.125.25-.125.125-.125.125-.375.125h-1.126c-.125,0-.25,0-.25-.125-.125,0-.125-.125-.25-.25a1.85,1.85,0,0,0-1-1.376,4.3,4.3,0,0,0-4.252-.125,1.952,1.952,0,0,0-.875,1.626,1.528,1.528,0,0,0,.375,1.126,3.571,3.571,0,0,0,1.251.876,15.642,15.642,0,0,0,2.251.75,11.6,11.6,0,0,1,2.752,1,4.313,4.313,0,0,1,1.626,1.251,3.173,3.173,0,0,1,.5,2,4.319,4.319,0,0,1-.625,2.251,4.089,4.089,0,0,1-1.876,1.376A19.629,19.629,0,0,1,173.428,56.283Z" transform="translate(-51.355 -41.02)"/>
          <path id="Path_23476" data-name="Path 23476" d="M179.2,56.059a.443.443,0,0,1-.5-.5V41.8a.443.443,0,0,1,.5-.5h1a.443.443,0,0,1,.5.5v7.254l4.127-3.377c.125-.125.25-.25.375-.25s.25-.125.5-.125h1.126c.125,0,.25,0,.25.125.125.125.125.125.125.25V45.8c0,.125-.125.125-.25.25l-4.753,4,5.253,5.128c.125.125.25.25.25.375s0,.25-.125.25c-.125.125-.125.125-.25.125h-1.126c-.25,0-.375,0-.5-.125-.125,0-.25-.125-.375-.25L180.7,51.181v4.252a.443.443,0,0,1-.5.5h-1Z" transform="translate(-48.623 -41.046)"/>
          <path id="Path_23477" data-name="Path 23477" d="M189.252,59.134c-.125,0-.25,0-.25-.125-.125-.125-.125-.125-.125-.25v-.125a.388.388,0,0,1,.125-.25l1.626-3.752-4-9.38a.459.459,0,0,1-.125-.375c0-.125,0-.25.125-.25.125-.125.125-.125.25-.125h1a.459.459,0,0,1,.375.125c.125.125.125.125.125.25l3.127,7.5,3.252-7.5c0-.125.125-.125.125-.25a.459.459,0,0,1,.375-.125h1c.125,0,.25,0,.25.125.125.125.125.125.125.25a.459.459,0,0,1-.125.375l-5.753,13.633c0,.125-.125.125-.125.25a.459.459,0,0,1-.375.125h-1Z" transform="translate(-46.668 -40.244)"/>
          <path id="Path_23478" data-name="Path 23478" d="M196.9,55.331a.443.443,0,0,1-.5-.5V44.95a.443.443,0,0,1,.5-.5h1a.443.443,0,0,1,.5.5v.875a3.058,3.058,0,0,1,1.376-1.126,4.837,4.837,0,0,1,2.126-.5,4.319,4.319,0,0,1,2.251.625,3.458,3.458,0,0,1,1.376,1.626,5.076,5.076,0,0,1,.5,2.376v5.878a.443.443,0,0,1-.5.5h-1a.443.443,0,0,1-.5-.5V48.953a3.058,3.058,0,0,0-.75-2.251,2.8,2.8,0,0,0-2.126-.875,2.333,2.333,0,0,0-2,.875,3.058,3.058,0,0,0-.75,2.251v5.753a.443.443,0,0,1-.5.5h-1Z" transform="translate(-44.186 -40.318)"/>
          <path id="Path_23479" data-name="Path 23479" d="M210.853,55.606a4.42,4.42,0,0,1-3.377-1.376A5.586,5.586,0,0,1,206.1,50.6V49.1a5.813,5.813,0,0,1,.625-2.626,5.451,5.451,0,0,1,1.626-1.751,5.288,5.288,0,0,1,2.5-.625,5.813,5.813,0,0,1,2.626.625,4.675,4.675,0,0,1,1.626,1.876,6.952,6.952,0,0,1,.5,2.877v.375a.443.443,0,0,1-.5.5h-7.129v.25a3.462,3.462,0,0,0,.375,1.626,3.176,3.176,0,0,0,1,1.251,2.682,2.682,0,0,0,1.5.5,3.7,3.7,0,0,0,1.251-.25,1.924,1.924,0,0,0,.75-.5.67.67,0,0,0,.375-.5l.25-.25h1.376a.459.459,0,0,1,.375.125c.125.125.125.125.125.375a1.081,1.081,0,0,1-.375.75,5.78,5.78,0,0,1-.875.875,13.649,13.649,0,0,1-1.376.75,7.569,7.569,0,0,1-1.876.25Zm-2.877-6.379H213.6a3.463,3.463,0,0,0-.375-1.626,2.208,2.208,0,0,0-1-1.126,2.782,2.782,0,0,0-4,1.126A4.9,4.9,0,0,0,207.976,49.228Z" transform="translate(-41.753 -40.344)"/>
          <path id="Path_23480" data-name="Path 23480" d="M220.079,56.109a3.014,3.014,0,0,1-1.876-.5,1.987,1.987,0,0,1-1-1.251,4.762,4.762,0,0,1-.375-2v-5.5H215.2a.443.443,0,0,1-.5-.5V45.6a.443.443,0,0,1,.5-.5h1.626V41.6a.443.443,0,0,1,.5-.5h1a.443.443,0,0,1,.5.5v3.5h2.626a.443.443,0,0,1,.5.5v.75a.443.443,0,0,1-.5.5h-2.626v5.378a2.668,2.668,0,0,0,.375,1.5,1.219,1.219,0,0,0,1.126.5h1.251a.443.443,0,0,1,.5.5v.75a.443.443,0,0,1-.5.5h-1.5Z" transform="translate(-39.598 -41.097)"/>
          <path id="Path_23481" data-name="Path 23481" d="M229.9,56.009a.443.443,0,0,1-.5-.5V43.377h-4a.443.443,0,0,1-.5-.5V42a.443.443,0,0,1,.5-.5h10.006a.443.443,0,0,1,.5.5v.875a.443.443,0,0,1-.5.5h-4V55.634a.443.443,0,0,1-.5.5h-1Z" transform="translate(-37.041 -40.996)"/>
          <path id="Path_23482" data-name="Path 23482" d="M238.253,55.606a4.42,4.42,0,0,1-3.377-1.376A5.586,5.586,0,0,1,233.5,50.6V49.1a5.813,5.813,0,0,1,.625-2.626,5.45,5.45,0,0,1,1.626-1.751,5.288,5.288,0,0,1,2.5-.625,5.813,5.813,0,0,1,2.626.625,4.675,4.675,0,0,1,1.626,1.876,6.952,6.952,0,0,1,.5,2.877v.375a.443.443,0,0,1-.5.5h-7.129v.25a3.462,3.462,0,0,0,.375,1.626,3.175,3.175,0,0,0,1,1.251,2.681,2.681,0,0,0,1.5.5,3.7,3.7,0,0,0,1.251-.25,1.924,1.924,0,0,0,.75-.5.67.67,0,0,0,.375-.5l.25-.25h1.376a.459.459,0,0,1,.375.125c.125.125.125.125.125.375a1.08,1.08,0,0,1-.375.75,5.781,5.781,0,0,1-.876.875,13.646,13.646,0,0,1-1.376.75,9.653,9.653,0,0,1-1.876.25Zm-2.877-6.379H241a3.462,3.462,0,0,0-.375-1.626,2.207,2.207,0,0,0-1-1.126,2.97,2.97,0,0,0-1.5-.375,2.668,2.668,0,0,0-1.5.375,2.953,2.953,0,0,0-1,1.126A4.9,4.9,0,0,0,235.376,49.228Z" transform="translate(-34.884 -40.344)"/>
          <path id="Path_23483" data-name="Path 23483" d="M247.553,55.556a4.926,4.926,0,0,1-2.5-.625,3.421,3.421,0,0,1-1.626-1.626,5.694,5.694,0,0,1-.625-2.5V49.053a4.927,4.927,0,0,1,.625-2.5,3.421,3.421,0,0,1,1.626-1.626,5.288,5.288,0,0,1,2.5-.625,5.842,5.842,0,0,1,2.126.375,3.726,3.726,0,0,1,1.376.876,6.879,6.879,0,0,1,.876,1.126,3.653,3.653,0,0,1,.25,1.126.443.443,0,0,1-.5.5h-1c-.125,0-.25,0-.25-.125s-.125-.125-.25-.375a3.028,3.028,0,0,0-1-1.376,3.127,3.127,0,0,0-1.626-.375,2.64,2.64,0,0,0-2,.75,4.211,4.211,0,0,0-.875,2.5v1.5a3.529,3.529,0,0,0,.875,2.5,2.84,2.84,0,0,0,2,.75,3.462,3.462,0,0,0,1.626-.375,2.35,2.35,0,0,0,1-1.376c.125-.125.125-.25.25-.375s.125-.125.25-.125h1a.443.443,0,0,1,.5.5c0,.25-.125.625-.125.875a3.135,3.135,0,0,1-.5.875,5.779,5.779,0,0,1-.875.876,11.628,11.628,0,0,1-1.251.625A9.4,9.4,0,0,0,247.553,55.556Z" transform="translate(-32.552 -40.293)"/>
          <path id="Path_23484" data-name="Path 23484" d="M252.8,56.059a.443.443,0,0,1-.5-.5V41.8a.443.443,0,0,1,.5-.5h1a.443.443,0,0,1,.5.5v4.878a3.91,3.91,0,0,1,1.376-1.126,4.763,4.763,0,0,1,2-.375,4.319,4.319,0,0,1,2.251.625,3.458,3.458,0,0,1,1.376,1.626,5.075,5.075,0,0,1,.5,2.376v5.878a.443.443,0,0,1-.5.5h-1a.443.443,0,0,1-.5-.5V49.931a3.058,3.058,0,0,0-.75-2.251,2.8,2.8,0,0,0-2.126-.875,2.743,2.743,0,0,0-2.126.875,3.058,3.058,0,0,0-.75,2.251v5.753a.443.443,0,0,1-.5.5h-.75Z" transform="translate(-30.171 -41.046)"/>
          <path id="Path_23485" data-name="Path 23485" d="M262.9,55.331a.443.443,0,0,1-.5-.5V44.95a.443.443,0,0,1,.5-.5h1a.443.443,0,0,1,.5.5v.875a3.058,3.058,0,0,1,1.376-1.126,4.837,4.837,0,0,1,2.126-.5,4.319,4.319,0,0,1,2.251.625,3.458,3.458,0,0,1,1.376,1.626,5.075,5.075,0,0,1,.5,2.376v5.878a.443.443,0,0,1-.5.5h-1a.443.443,0,0,1-.5-.5V48.953a3.058,3.058,0,0,0-.75-2.251,2.8,2.8,0,0,0-2.126-.875,2.333,2.333,0,0,0-2,.875,3.058,3.058,0,0,0-.75,2.251v5.753a.443.443,0,0,1-.5.5h-1Z" transform="translate(-27.639 -40.318)"/>
          <path id="Path_23486" data-name="Path 23486" d="M276.978,55.531a5.813,5.813,0,0,1-2.627-.625,4.064,4.064,0,0,1-1.626-1.626A5.173,5.173,0,0,1,272.1,50.9V49.153a5.693,5.693,0,0,1,.625-2.5,3.421,3.421,0,0,1,1.626-1.626,5.828,5.828,0,0,1,5.253,0,4.065,4.065,0,0,1,1.626,1.626,5.288,5.288,0,0,1,.625,2.5V50.9a4.791,4.791,0,0,1-.625,2.376,3.421,3.421,0,0,1-1.626,1.626A5.813,5.813,0,0,1,276.978,55.531Zm0-1.626a2.333,2.333,0,0,0,2-.875,4.127,4.127,0,0,0,.876-2.376v-1.5a3.424,3.424,0,0,0-.875-2.376,2.951,2.951,0,0,0-2-.875,2.333,2.333,0,0,0-2,.875,4.128,4.128,0,0,0-.876,2.376v1.5a2.942,2.942,0,0,0,.876,2.376,2.192,2.192,0,0,0,2,.875Z" transform="translate(-25.206 -40.268)"/>
          <path id="Path_23487" data-name="Path 23487" d="M282.4,56.059a.443.443,0,0,1-.5-.5V41.8a.443.443,0,0,1,.5-.5h1a.443.443,0,0,1,.5.5V55.559a.443.443,0,0,1-.5.5Z" transform="translate(-22.75 -41.046)"/>
          <path id="Path_23488" data-name="Path 23488" d="M290.478,55.531a5.813,5.813,0,0,1-2.626-.625,4.065,4.065,0,0,1-1.626-1.626A5.173,5.173,0,0,1,285.6,50.9V49.153a5.693,5.693,0,0,1,.625-2.5,3.42,3.42,0,0,1,1.626-1.626,5.828,5.828,0,0,1,5.253,0,4.065,4.065,0,0,1,1.626,1.626,5.288,5.288,0,0,1,.625,2.5V50.9a4.791,4.791,0,0,1-.625,2.376,3.421,3.421,0,0,1-1.626,1.626A5.814,5.814,0,0,1,290.478,55.531Zm0-1.626a2.333,2.333,0,0,0,2-.875,4.128,4.128,0,0,0,.876-2.376v-1.5a3.424,3.424,0,0,0-.875-2.376,2.952,2.952,0,0,0-2-.875,2.333,2.333,0,0,0-2,.875,4.127,4.127,0,0,0-.875,2.376v1.5a2.942,2.942,0,0,0,.875,2.376A2.332,2.332,0,0,0,290.478,53.905Z" transform="translate(-21.822 -40.268)"/>
          <path id="Path_23489" data-name="Path 23489" d="M299.928,59.81a5.225,5.225,0,0,1-2.251-.375,2.909,2.909,0,0,1-1.376-.875,4.1,4.1,0,0,1-.75-1,3.183,3.183,0,0,1-.25-.875.443.443,0,0,1,.5-.5h1c.125,0,.25,0,.25.125.125,0,.125.125.25.375l.375.75a1.281,1.281,0,0,0,.75.625,4.665,4.665,0,0,0,1.5.25,5.55,5.55,0,0,0,1.626-.25,1.735,1.735,0,0,0,1-.876,3.312,3.312,0,0,0,.375-1.751v-1.5a11.273,11.273,0,0,1-1.251,1.126,4.763,4.763,0,0,1-2,.375,5.185,5.185,0,0,1-2-.375,3.976,3.976,0,0,1-2.126-2.752,9.652,9.652,0,0,1-.25-1.876V49.3a9.647,9.647,0,0,1,.25-1.876,3.876,3.876,0,0,1,.75-1.626,3.058,3.058,0,0,1,1.376-1.126,4.763,4.763,0,0,1,2-.375,3.832,3.832,0,0,1,2.126.5,3.909,3.909,0,0,1,1.376,1.126v-.876a.443.443,0,0,1,.5-.5h1a.443.443,0,0,1,.5.5V55.057a5.6,5.6,0,0,1-.5,2.5,4.044,4.044,0,0,1-1.5,1.751A8.88,8.88,0,0,1,299.928,59.81Zm0-6.128a2.126,2.126,0,0,0,1.626-.5,2.859,2.859,0,0,0,.875-1.251,6.593,6.593,0,0,0,.375-1.5v-1.5a3.331,3.331,0,0,0-.375-1.5,4.492,4.492,0,0,0-.875-1.251,2.306,2.306,0,0,0-1.626-.5,2.126,2.126,0,0,0-1.626.5,2.294,2.294,0,0,0-.875,1.251,6.337,6.337,0,0,0-.25,1.626V50.18a6.337,6.337,0,0,0,.25,1.626,2.859,2.859,0,0,0,.875,1.251A1.786,1.786,0,0,0,299.928,53.682Z" transform="translate(-19.391 -40.295)"/>
          <path id="Path_23490" data-name="Path 23490" d="M305.7,43.327a.443.443,0,0,1-.5-.5V41.7a.443.443,0,0,1,.5-.5h1.251a.443.443,0,0,1,.5.5v1.126a.443.443,0,0,1-.5.5Zm.25,12.757a.443.443,0,0,1-.5-.5V45.7a.443.443,0,0,1,.5-.5h1a.443.443,0,0,1,.5.5v9.881a.443.443,0,0,1-.5.5Z" transform="translate(-16.909 -41.071)"/>
          <path id="Path_23491" data-name="Path 23491" d="M313.853,55.606a4.42,4.42,0,0,1-3.377-1.376A5.586,5.586,0,0,1,309.1,50.6V49.1a5.814,5.814,0,0,1,.625-2.626,5.449,5.449,0,0,1,1.626-1.751,5.288,5.288,0,0,1,2.5-.625,5.813,5.813,0,0,1,2.626.625,4.675,4.675,0,0,1,1.626,1.876,6.951,6.951,0,0,1,.5,2.877v.375a.443.443,0,0,1-.5.5h-7.129v.25a3.462,3.462,0,0,0,.375,1.626,3.177,3.177,0,0,0,1,1.251,2.682,2.682,0,0,0,1.5.5,3.7,3.7,0,0,0,1.251-.25,1.924,1.924,0,0,0,.75-.5.67.67,0,0,0,.375-.5l.25-.25h1.376a.459.459,0,0,1,.375.125c.125.125.125.125.125.375a1.081,1.081,0,0,1-.375.75,5.78,5.78,0,0,1-.875.875,13.651,13.651,0,0,1-1.376.75A7.566,7.566,0,0,1,313.853,55.606Zm-2.877-6.379H316.6a3.462,3.462,0,0,0-.375-1.626,2.208,2.208,0,0,0-1-1.126,2.97,2.97,0,0,0-1.5-.375,2.668,2.668,0,0,0-1.5.375,2.952,2.952,0,0,0-1,1.126,4.9,4.9,0,0,0-.25,1.626Z" transform="translate(-15.93 -40.344)"/>
          <path id="Path_23492" data-name="Path 23492" d="M322.578,55.581a9.72,9.72,0,0,1-2-.25,4.854,4.854,0,0,1-1.376-.75,1.681,1.681,0,0,1-.75-.875,2.111,2.111,0,0,1-.25-.625.443.443,0,0,1,.5-.5h1a.437.437,0,0,0,.25.125c.125.25.375.375.625.625a2.016,2.016,0,0,0,.875.5,3.856,3.856,0,0,0,1.251.125,3.627,3.627,0,0,0,1.751-.375c.5-.25.625-.625.625-1.251a1.808,1.808,0,0,0-.25-.875c-.125-.25-.5-.375-1-.5a15.331,15.331,0,0,0-2-.5,6.1,6.1,0,0,1-2-.75,1.937,1.937,0,0,1-1-1,2.474,2.474,0,0,1-.25-1.376,2.4,2.4,0,0,1,.5-1.5,2.516,2.516,0,0,1,1.376-1.126,5.974,5.974,0,0,1,2.251-.5,7.57,7.57,0,0,1,1.876.25,3.913,3.913,0,0,1,1.251.625,2.159,2.159,0,0,1,1,1.376.443.443,0,0,1-.5.5H325.2a.125.125,0,0,1-.125-.125c-.125-.125-.25-.375-.5-.5s-.375-.375-.75-.5A3.106,3.106,0,0,0,322.7,45.7a2.173,2.173,0,0,0-1.5.375,1.219,1.219,0,0,0-.5,1.126,1.777,1.777,0,0,0,.25.75c.125.25.5.375.876.5a12.757,12.757,0,0,0,1.876.5,4.728,4.728,0,0,1,2.126.75,2.953,2.953,0,0,1,1.126,1,2.807,2.807,0,0,1-.125,3,3.414,3.414,0,0,1-1.5,1.126A4.6,4.6,0,0,1,322.578,55.581Z" transform="translate(-13.65 -40.318)"/>
        </g>
      </g>
      <g id="Group_23187" data-name="Group 23187">
        <path id="Path_23493" data-name="Path 23493" d="M1.023,5.477A.728.728,0,0,1,.5,5.241a.728.728,0,0,1-.236-.525A1.348,1.348,0,0,1,.3,4.389L8.821-18.9a1.456,1.456,0,0,1,.454-.708,1.391,1.391,0,0,1,.961-.309H15.6a1.391,1.391,0,0,1,.962.309,1.456,1.456,0,0,1,.453.708L25.505,4.389a.72.72,0,0,1,.073.326.728.728,0,0,1-.235.527.768.768,0,0,1-.563.235H20.321A1.108,1.108,0,0,1,19.5,5.2a1.353,1.353,0,0,1-.344-.49l-1.417-3.7H8.064l-1.383,3.7a1.428,1.428,0,0,1-.326.49,1.154,1.154,0,0,1-.875.273ZM9.546-4.207h6.746l-3.377-9.575Zm19.4,9.684A.853.853,0,0,1,28.3,5.2a.9.9,0,0,1-.25-.635V-19.369a.884.884,0,0,1,.25-.653.884.884,0,0,1,.653-.25h4.28a.884.884,0,0,1,.653.25.884.884,0,0,1,.25.653V4.57a.9.9,0,0,1-.25.635.853.853,0,0,1-.653.271Zm10.373,0a.853.853,0,0,1-.653-.273.9.9,0,0,1-.25-.635V-19.369a.884.884,0,0,1,.25-.653.884.884,0,0,1,.653-.25H43.6a.884.884,0,0,1,.653.25.884.884,0,0,1,.25.653V4.57a.9.9,0,0,1-.25.635.853.853,0,0,1-.653.271Zm18.1,0A.853.853,0,0,1,56.77,5.2a.9.9,0,0,1-.25-.635V-12.478a.884.884,0,0,1,.25-.653.884.884,0,0,1,.653-.25H61.7a.884.884,0,0,1,.653.25.884.884,0,0,1,.25.653V4.57a.9.9,0,0,1-.25.635.853.853,0,0,1-.653.271ZM57.387-16.1a.884.884,0,0,1-.653-.25.884.884,0,0,1-.25-.653v-3.264a.9.9,0,0,1,.25-.634.853.853,0,0,1,.653-.273h4.352a.876.876,0,0,1,.634.273.875.875,0,0,1,.271.634v3.264a.853.853,0,0,1-.271.653.9.9,0,0,1-.634.25ZM68.921,5.477a.853.853,0,0,1-.653-.273.9.9,0,0,1-.25-.635V-12.478a.884.884,0,0,1,.25-.653.884.884,0,0,1,.653-.25h4.171a.947.947,0,0,1,.67.25.853.853,0,0,1,.273.653V-11.1a7.189,7.189,0,0,1,2.43-1.886,7.939,7.939,0,0,1,3.591-.762,7.233,7.233,0,0,1,3.717.943,6.537,6.537,0,0,1,2.539,2.752,9.834,9.834,0,0,1,.926,4.5V4.57a.9.9,0,0,1-.25.635.853.853,0,0,1-.657.271h-4.57a.93.93,0,0,1-.906-.907v-9.9a3.848,3.848,0,0,0-.815-2.626,3.047,3.047,0,0,0-2.413-.926,3.142,3.142,0,0,0-2.376.926,3.643,3.643,0,0,0-.889,2.626v9.9a.927.927,0,0,1-.907.907Zm40.913.363a14.284,14.284,0,0,1-5.8-1.088,8.449,8.449,0,0,1-3.845-3.277,11.1,11.1,0,0,1-1.523-5.5q-.036-1.56-.036-3.138t.036-3.138a11.124,11.124,0,0,1,1.541-5.5,8.691,8.691,0,0,1,3.877-3.354,13.818,13.818,0,0,1,5.753-1.126,13.786,13.786,0,0,1,5.767,1.126,8.82,8.82,0,0,1,3.877,3.354A10.756,10.756,0,0,1,121-10.3q.073,1.56.073,3.138T121-4.028a10.73,10.73,0,0,1-1.5,5.5,8.556,8.556,0,0,1-3.865,3.277A14.284,14.284,0,0,1,109.834,5.84Zm0-5.223a4.355,4.355,0,0,0,3.138-1.161,5.134,5.134,0,0,0,1.287-3.7q.073-1.6.073-3.01t-.073-2.938a6.571,6.571,0,0,0-.634-2.775,3.6,3.6,0,0,0-1.541-1.578,4.815,4.815,0,0,0-2.251-.508,4.735,4.735,0,0,0-2.212.508,3.707,3.707,0,0,0-1.56,1.578,6.379,6.379,0,0,0-.653,2.775q-.039,1.523-.039,2.938t.036,3.01a5.253,5.253,0,0,0,1.323,3.7A4.307,4.307,0,0,0,109.834.617Zm15.959,4.86a.853.853,0,0,1-.653-.273.9.9,0,0,1-.25-.635V-12.478a.884.884,0,0,1,.25-.653.884.884,0,0,1,.653-.25h4.171a.947.947,0,0,1,.67.25.853.853,0,0,1,.271.653V-11.1a7.189,7.189,0,0,1,2.43-1.886,7.94,7.94,0,0,1,3.591-.762,7.233,7.233,0,0,1,3.717.943,6.537,6.537,0,0,1,2.539,2.752,9.834,9.834,0,0,1,.926,4.5V4.57a.9.9,0,0,1-.25.635.853.853,0,0,1-.655.271h-4.565a.932.932,0,0,1-.907-.908v-9.9a3.848,3.848,0,0,0-.815-2.626,3.047,3.047,0,0,0-2.413-.926,3.142,3.142,0,0,0-2.376.926,3.643,3.643,0,0,0-.888,2.626v9.9a.932.932,0,0,1-.907.908Zm31.12.363a9.715,9.715,0,0,1-6.819-2.321,9.19,9.19,0,0,1-2.648-6.891V-4.642a10.521,10.521,0,0,1,1.288-4.915A7.8,7.8,0,0,1,152-12.677a10.55,10.55,0,0,1,4.878-1.071,10.006,10.006,0,0,1,5.277,1.269,8.069,8.069,0,0,1,3.137,3.446,11.28,11.28,0,0,1,1.052,4.969v.875a.884.884,0,0,1-.25.653.884.884,0,0,1-.653.25H153.833v.258A5.724,5.724,0,0,0,154.208-.1a3.127,3.127,0,0,0,1.016,1.376,2.655,2.655,0,0,0,1.65.508,2.792,2.792,0,0,0,1.216-.235A3.2,3.2,0,0,0,158.9,1a6.379,6.379,0,0,0,.512-.525,1.792,1.792,0,0,1,.527-.489,1.637,1.637,0,0,1,.635-.091h4.5a.848.848,0,0,1,.6.218.655.655,0,0,1,.2.58,3.189,3.189,0,0,1-.617,1.487A7.489,7.489,0,0,1,163.576,3.9,9.17,9.17,0,0,1,160.8,5.3a12.533,12.533,0,0,1-3.888.54ZM153.83-5.875h6.128v-.073A5.464,5.464,0,0,0,159.613-8a2.808,2.808,0,0,0-1.052-1.324,2.969,2.969,0,0,0-1.687-.472,2.819,2.819,0,0,0-1.632.472A2.962,2.962,0,0,0,154.19-8a5.22,5.22,0,0,0-.363,2.049ZM175.52,5.477a.809.809,0,0,1-.762-.763,1.35,1.35,0,0,1,.036-.326L183.318-18.9a1.456,1.456,0,0,1,.454-.708,1.391,1.391,0,0,1,.962-.309H190.1a1.391,1.391,0,0,1,.961.309,1.456,1.456,0,0,1,.454.708L200,4.389a.727.727,0,0,1-.164.853.768.768,0,0,1-.562.236h-4.461A1.108,1.108,0,0,1,194,5.206a1.352,1.352,0,0,1-.344-.49l-1.415-3.7h-9.684l-1.376,3.7a1.428,1.428,0,0,1-.326.49,1.154,1.154,0,0,1-.875.273Zm8.519-9.684h6.754l-3.377-9.577ZM210.956,5.84a10.976,10.976,0,0,1-4.753-.979,7.829,7.829,0,0,1-3.279-2.848,8.722,8.722,0,0,1-1.324-4.48q-.036-.58-.036-1.47T201.6-5.4A8.894,8.894,0,0,1,202.9-9.919a7.687,7.687,0,0,1,3.283-2.848,11.1,11.1,0,0,1,4.769-.979,11.723,11.723,0,0,1,4.3.708,8.88,8.88,0,0,1,2.9,1.758,8.06,8.06,0,0,1,1.668,2.159,4.884,4.884,0,0,1,.6,1.941.735.735,0,0,1-.25.634.931.931,0,0,1-.653.273h-4.606a.938.938,0,0,1-.617-.181A1.671,1.671,0,0,1,213.9-7a3.369,3.369,0,0,0-1.106-1.6,2.929,2.929,0,0,0-1.723-.472,2.73,2.73,0,0,0-2.231.943,4.786,4.786,0,0,0-.853,2.9q-.036,1.451,0,2.575a4.916,4.916,0,0,0,.875,2.9,2.727,2.727,0,0,0,2.213.907,2.9,2.9,0,0,0,1.777-.49A3.349,3.349,0,0,0,213.9-.906a1.672,1.672,0,0,1,.4-.544.938.938,0,0,1,.617-.181h4.606a.966.966,0,0,1,.653.25.732.732,0,0,1,.25.653A4.86,4.86,0,0,1,220.059.69a7.345,7.345,0,0,1-1.016,1.741A7.732,7.732,0,0,1,217.25,4.1a9.911,9.911,0,0,1-2.667,1.251,12.132,12.132,0,0,1-3.627.488Zm21.4,0a10.976,10.976,0,0,1-4.753-.979,7.829,7.829,0,0,1-3.282-2.848A8.722,8.722,0,0,1,223-2.467q-.036-.58-.036-1.47T223-5.4A8.894,8.894,0,0,1,224.3-9.919a7.687,7.687,0,0,1,3.283-2.848,11.1,11.1,0,0,1,4.769-.979,11.723,11.723,0,0,1,4.3.708,8.88,8.88,0,0,1,2.9,1.758,8.06,8.06,0,0,1,1.668,2.159,4.885,4.885,0,0,1,.6,1.941.735.735,0,0,1-.25.634.931.931,0,0,1-.653.273h-4.606a.938.938,0,0,1-.617-.181A1.671,1.671,0,0,1,235.3-7a3.369,3.369,0,0,0-1.106-1.6,2.929,2.929,0,0,0-1.723-.472,2.73,2.73,0,0,0-2.231.943,4.786,4.786,0,0,0-.852,2.9q-.036,1.451,0,2.575a4.917,4.917,0,0,0,.875,2.9,2.727,2.727,0,0,0,2.212.907,2.9,2.9,0,0,0,1.777-.49A3.349,3.349,0,0,0,235.3-.906a1.67,1.67,0,0,1,.4-.544.938.938,0,0,1,.617-.181h4.606a.966.966,0,0,1,.653.25.732.732,0,0,1,.25.653,4.861,4.861,0,0,1-.363,1.415,7.349,7.349,0,0,1-1.016,1.741,7.732,7.732,0,0,1-1.8,1.675,9.911,9.911,0,0,1-2.665,1.251A12.132,12.132,0,0,1,232.356,5.84Zm21.436,0a9.716,9.716,0,0,1-6.819-2.321,9.19,9.19,0,0,1-2.648-6.891V-4.642a10.521,10.521,0,0,1,1.287-4.915,7.8,7.8,0,0,1,3.264-3.119,10.55,10.55,0,0,1,4.878-1.071,10.006,10.006,0,0,1,5.277,1.269,8.07,8.07,0,0,1,3.139,3.447,11.28,11.28,0,0,1,1.052,4.969v.875a.884.884,0,0,1-.25.653.884.884,0,0,1-.653.25H250.712v.256A5.723,5.723,0,0,0,251.087-.1,3.127,3.127,0,0,0,252.1,1.271a2.655,2.655,0,0,0,1.651.508,2.79,2.79,0,0,0,1.214-.235A3.2,3.2,0,0,0,255.785,1a6.373,6.373,0,0,0,.509-.525,1.792,1.792,0,0,1,.527-.489,1.637,1.637,0,0,1,.635-.091h4.5a.848.848,0,0,1,.6.218.655.655,0,0,1,.2.58,3.19,3.19,0,0,1-.617,1.487A7.49,7.49,0,0,1,260.455,3.9a9.17,9.17,0,0,1-2.775,1.4,12.533,12.533,0,0,1-3.888.54ZM250.708-5.875h6.128v-.073A5.464,5.464,0,0,0,256.493-8a2.808,2.808,0,0,0-1.052-1.324,2.969,2.969,0,0,0-1.686-.472,2.819,2.819,0,0,0-1.626.472A2.962,2.962,0,0,0,251.077-8a5.22,5.22,0,0,0-.363,2.049ZM274.393,5.84a13.314,13.314,0,0,1-4-.527,9.255,9.255,0,0,1-2.684-1.288,5.893,5.893,0,0,1-1.541-1.578,3.179,3.179,0,0,1-.544-1.432.732.732,0,0,1,.25-.653.923.923,0,0,1,.617-.25h4.135a.533.533,0,0,1,.2.036.626.626,0,0,1,.2.145,6.141,6.141,0,0,1,.943.635,5.344,5.344,0,0,0,1.088.67,3.471,3.471,0,0,0,1.487.29,3.238,3.238,0,0,0,1.7-.416,1.308,1.308,0,0,0,.689-1.179,1.425,1.425,0,0,0-.326-.961,3.273,3.273,0,0,0-1.325-.744,19.7,19.7,0,0,0-2.993-.725,14.844,14.844,0,0,1-3.3-1.141,5.493,5.493,0,0,1-2.176-1.85,4.888,4.888,0,0,1-.762-2.775,4.792,4.792,0,0,1,.943-2.793,6.8,6.8,0,0,1,2.752-2.195,10.547,10.547,0,0,1,4.5-.853,12.132,12.132,0,0,1,3.627.49A9.049,9.049,0,0,1,280.486-12a6.547,6.547,0,0,1,1.6,1.56,2.945,2.945,0,0,1,.58,1.451.779.779,0,0,1-.218.634.774.774,0,0,1-.58.271h-3.773a.822.822,0,0,1-.29-.054,1.243,1.243,0,0,1-.25-.125,4.541,4.541,0,0,1-.875-.58A5.237,5.237,0,0,0,275.66-9.5a3.23,3.23,0,0,0-1.451-.29,2.376,2.376,0,0,0-1.523.435,1.376,1.376,0,0,0-.544,1.126,1.393,1.393,0,0,0,.308.875,2.723,2.723,0,0,0,1.269.725,25.362,25.362,0,0,0,2.993.725,11.289,11.289,0,0,1,3.99,1.287,5.542,5.542,0,0,1,2.126,2.067,5.167,5.167,0,0,1,.634,2.484A4.859,4.859,0,0,1,282.41,3.02,6.741,6.741,0,0,1,279.342,5.1a14.383,14.383,0,0,1-4.949.738Zm20.058,0a13.314,13.314,0,0,1-4-.527,9.255,9.255,0,0,1-2.684-1.288,5.893,5.893,0,0,1-1.543-1.577,3.179,3.179,0,0,1-.544-1.432.732.732,0,0,1,.25-.653.923.923,0,0,1,.617-.25h4.135a.533.533,0,0,1,.2.036.625.625,0,0,1,.2.145,6.141,6.141,0,0,1,.943.635,5.343,5.343,0,0,0,1.088.67,3.471,3.471,0,0,0,1.487.29,3.238,3.238,0,0,0,1.7-.416,1.308,1.308,0,0,0,.689-1.179,1.424,1.424,0,0,0-.326-.961,3.273,3.273,0,0,0-1.324-.744,19.7,19.7,0,0,0-2.993-.725,14.843,14.843,0,0,1-3.3-1.142,5.493,5.493,0,0,1-2.176-1.85,4.888,4.888,0,0,1-.762-2.775,4.791,4.791,0,0,1,.943-2.793,6.805,6.805,0,0,1,2.752-2.195,10.547,10.547,0,0,1,4.5-.853,12.132,12.132,0,0,1,3.627.49A9.049,9.049,0,0,1,300.544-12a6.547,6.547,0,0,1,1.6,1.56,2.946,2.946,0,0,1,.58,1.451.779.779,0,0,1-.218.634.774.774,0,0,1-.58.271H298.15a.822.822,0,0,1-.29-.054,1.244,1.244,0,0,1-.25-.125,4.541,4.541,0,0,1-.875-.58,5.237,5.237,0,0,0-1.016-.653,3.231,3.231,0,0,0-1.451-.29,2.376,2.376,0,0,0-1.523.435,1.376,1.376,0,0,0-.544,1.126,1.394,1.394,0,0,0,.308.875,2.723,2.723,0,0,0,1.269.725,25.359,25.359,0,0,0,2.993.725,11.289,11.289,0,0,1,3.99,1.287,5.542,5.542,0,0,1,2.126,2.067,5.166,5.166,0,0,1,.635,2.484A4.859,4.859,0,0,1,302.47,3.02,6.741,6.741,0,0,1,299.4,5.1a14.383,14.383,0,0,1-4.952.738Zm13.2-.363A.853.853,0,0,1,307,5.2a.9.9,0,0,1-.25-.635V-12.478a.884.884,0,0,1,.25-.653.884.884,0,0,1,.653-.25h4.28a.884.884,0,0,1,.653.25.884.884,0,0,1,.25.653V4.57a.9.9,0,0,1-.25.635.853.853,0,0,1-.653.273ZM307.617-16.1a.884.884,0,0,1-.653-.25.884.884,0,0,1-.25-.653v-3.264a.9.9,0,0,1,.25-.634.853.853,0,0,1,.653-.273h4.352a.876.876,0,0,1,.635.273.876.876,0,0,1,.271.634v3.264a.853.853,0,0,1-.271.653.9.9,0,0,1-.635.25ZM328.654,5.84a7.488,7.488,0,0,1-3.377-.689,6.835,6.835,0,0,1-2.251-1.741V4.57a.93.93,0,0,1-.905.908h-4.094a.853.853,0,0,1-.653-.273.9.9,0,0,1-.25-.635V-19.368a.884.884,0,0,1,.25-.653.884.884,0,0,1,.653-.25h4.425a.884.884,0,0,1,.653.25.884.884,0,0,1,.25.653v7.762a7.178,7.178,0,0,1,2.213-1.542,7.343,7.343,0,0,1,3.083-.6,8.086,8.086,0,0,1,3.209.6,6.6,6.6,0,0,1,2.376,1.7,7.86,7.86,0,0,1,1.523,2.684,12.1,12.1,0,0,1,.617,3.5q.036.725.036,1.287t-.038,1.287a12.422,12.422,0,0,1-.617,3.608,7.7,7.7,0,0,1-1.542,2.684,6.429,6.429,0,0,1-2.376,1.668A8.4,8.4,0,0,1,328.654,5.84ZM326.695.975a3.187,3.187,0,0,0,1.925-.5,2.842,2.842,0,0,0,1-1.376A7.23,7.23,0,0,0,330-2.824a17.448,17.448,0,0,0,0-2.251A7.231,7.231,0,0,0,329.62-7a2.842,2.842,0,0,0-1-1.376,3.187,3.187,0,0,0-1.922-.508,3.239,3.239,0,0,0-1.85.49,3.069,3.069,0,0,0-1.088,1.269,4.379,4.379,0,0,0-.4,1.686q-.036.689-.036,1.342t.036,1.376a6.206,6.206,0,0,0,.4,1.814A2.994,2.994,0,0,0,324.811.457a3.138,3.138,0,0,0,1.884.518Zm14.218,4.5a.853.853,0,0,1-.653-.273.9.9,0,0,1-.25-.635V-12.478a.884.884,0,0,1,.25-.653.884.884,0,0,1,.653-.25h4.28a.884.884,0,0,1,.653.25.884.884,0,0,1,.25.653V4.57a.9.9,0,0,1-.25.635.853.853,0,0,1-.653.273ZM340.877-16.1a.884.884,0,0,1-.653-.25.884.884,0,0,1-.25-.653v-3.264a.9.9,0,0,1,.25-.634.853.853,0,0,1,.653-.273h4.353a.876.876,0,0,1,.635.273.876.876,0,0,1,.271.634v3.264a.853.853,0,0,1-.271.653.9.9,0,0,1-.635.25Zm10.41,21.581a.853.853,0,0,1-.653-.273.9.9,0,0,1-.25-.635V-19.369a.884.884,0,0,1,.25-.653.884.884,0,0,1,.653-.25h4.28a.884.884,0,0,1,.653.25.884.884,0,0,1,.25.653V4.57a.9.9,0,0,1-.25.635.853.853,0,0,1-.653.273Zm11.607,0a.853.853,0,0,1-.653-.273.9.9,0,0,1-.25-.635V-12.478a.884.884,0,0,1,.25-.653.884.884,0,0,1,.653-.25h4.28a.884.884,0,0,1,.653.25.884.884,0,0,1,.25.653V4.57a.9.9,0,0,1-.25.635.853.853,0,0,1-.653.273ZM362.857-16.1a.884.884,0,0,1-.653-.25.884.884,0,0,1-.25-.653v-3.264a.9.9,0,0,1,.25-.634.853.853,0,0,1,.653-.273h4.352a.876.876,0,0,1,.635.273.876.876,0,0,1,.271.634v3.264a.853.853,0,0,1-.271.653.9.9,0,0,1-.635.25ZM382.007,5.477a9.881,9.881,0,0,1-4-.744,5.448,5.448,0,0,1-2.593-2.321,8.13,8.13,0,0,1-.907-4.081V-8.633h-2.829a.947.947,0,0,1-.67-.25.853.853,0,0,1-.271-.653v-2.938a.853.853,0,0,1,.271-.653.947.947,0,0,1,.67-.25h2.829v-5.985a.853.853,0,0,1,.271-.653.9.9,0,0,1,.635-.25h4.207a.884.884,0,0,1,.653.25.884.884,0,0,1,.25.653v5.985h4.534a.947.947,0,0,1,.67.25.853.853,0,0,1,.271.653v2.938a.853.853,0,0,1-.271.653.947.947,0,0,1-.67.25h-4.533v6.456A3.557,3.557,0,0,0,381-.218a1.757,1.757,0,0,0,1.6.725h2.793a.884.884,0,0,1,.653.25.884.884,0,0,1,.25.653V4.57a.9.9,0,0,1-.25.635.853.853,0,0,1-.653.273Zm10.809,6.891a.744.744,0,0,1-.762-.762,1.51,1.51,0,0,1,.018-.2.9.9,0,0,1,.091-.273l2.829-6.819L388.028-12.15a1.142,1.142,0,0,1-.109-.435,1.2,1.2,0,0,1,.29-.563.709.709,0,0,1,.544-.235h4.135a.961.961,0,0,1,.707.235,1.47,1.47,0,0,1,.345.527l4.135,10.555,4.244-10.555a2.014,2.014,0,0,1,.375-.527.96.96,0,0,1,.707-.235h4.062a.768.768,0,0,1,.563.235.728.728,0,0,1,.235.527,1.421,1.421,0,0,1-.109.472L397.888,11.613a1.375,1.375,0,0,1-.363.525,1.027,1.027,0,0,1-.725.235Z" transform="translate(4859.345 -2519.583)"/>
        <path id="Path_24217" data-name="Path 24217" d="M9.87.587A8.57,8.57,0,0,1,6.442-.1,8.914,8.914,0,0,1,3.639-2a8.914,8.914,0,0,1-1.9-2.8,8.57,8.57,0,0,1-.686-3.428,8.57,8.57,0,0,1,.686-3.428,8.914,8.914,0,0,1,1.9-2.8,8.914,8.914,0,0,1,2.8-1.9A8.57,8.57,0,0,1,9.87-17.04a8.57,8.57,0,0,1,3.428.686,8.914,8.914,0,0,1,2.8,1.9,8.914,8.914,0,0,1,1.9,2.8,8.57,8.57,0,0,1,.686,3.428A8.57,8.57,0,0,1,18-4.8,8.914,8.914,0,0,1,16.1-2,8.914,8.914,0,0,1,13.3-.1,8.57,8.57,0,0,1,9.87.587Zm0-1.959A6.406,6.406,0,0,0,12.5-1.91a6.8,6.8,0,0,0,2.13-1.481A7.051,7.051,0,0,0,16.076-5.57,6.71,6.71,0,0,0,16.6-8.226a6.71,6.71,0,0,0-.526-2.656,7.051,7.051,0,0,0-1.444-2.179,6.8,6.8,0,0,0-2.13-1.481,6.406,6.406,0,0,0-2.632-.539,6.406,6.406,0,0,0-2.632.539,6.8,6.8,0,0,0-2.13,1.481,7.051,7.051,0,0,0-1.444,2.179,6.71,6.71,0,0,0-.526,2.656A6.71,6.71,0,0,0,3.663-5.57,7.051,7.051,0,0,0,5.108-3.391,6.8,6.8,0,0,0,7.238-1.91,6.406,6.406,0,0,0,9.87-1.371Zm-3.036-2.4A.476.476,0,0,1,6.3-4.309v-7.883a.476.476,0,0,1,.539-.539h3.4a5.576,5.576,0,0,1,1.775.282,2.943,2.943,0,0,1,1.383.943,2.706,2.706,0,0,1,.539,1.763,2.718,2.718,0,0,1-.441,1.6,2.692,2.692,0,0,1-1.077.918l1.322,2.571a.618.618,0,0,1,.073.147.637.637,0,0,1,.024.2.584.584,0,0,1-.135.367.482.482,0,0,1-.4.171h-1.42a.8.8,0,0,1-.441-.11.724.724,0,0,1-.269-.355L9.992-6.757H8.841v2.448a.476.476,0,0,1-.539.539ZM8.841-8.789h1.371a1.065,1.065,0,0,0,.857-.294,1.006,1.006,0,0,0,.245-.661,1.026,1.026,0,0,0-.245-.7,1.092,1.092,0,0,0-.857-.282H8.841Z" transform="translate(5269.837 -2526.472)"/>
      </g>
    </g>
  </g>
</svg>
