<svg xmlns="http://www.w3.org/2000/svg" width="93.636" height="105.705" viewBox="0 0 93.636 105.705"><g transform="translate(-1322 -8533)"><path d="M240.24,324.575a4.613,4.613,0,0,0,4.592,4.592h35.841a4.613,4.613,0,0,0,4.592-4.592v-1.456H240.24Z" transform="translate(1106.625 8270.672)" fill="#420083"/><path d="M281.233,170.8H245.391a4.613,4.613,0,0,0-4.592,4.592v23.185h45.138V175.5a4.886,4.886,0,0,0-4.7-4.7Zm-29.793,6.608h9.3v9.3h-9.3Zm24.753,15.68H251.44v-3.136h24.641v3.136Zm0-6.384H263.872v-3.36h12.321Zm0-5.936H263.872v-3.36h12.321Z" transform="translate(1106.178 8392.525)" fill="#420083"/><path d="M205.524,42.672l-38.754-22.4a7.989,7.989,0,0,0-8.064,0l-38.754,22.4a8.186,8.186,0,0,0-4.032,6.944v44.8a7.911,7.911,0,0,0,4.032,6.944l38.754,22.4a8.385,8.385,0,0,0,4.032,1.12,7.309,7.309,0,0,0,4.032-1.12l38.754-22.4a8.186,8.186,0,0,0,4.032-6.944v-44.8A7.7,7.7,0,0,0,205.524,42.672ZM188.5,81.426a7.146,7.146,0,0,1-7.168,7.168H164.642v5.824h7.168a1.294,1.294,0,0,1,1.344,1.344,1.362,1.362,0,0,1-1.344,1.344H154.785a1.294,1.294,0,0,1-1.344-1.344,1.362,1.362,0,0,1,1.344-1.344h7.168V88.595H145.489a7.146,7.146,0,0,1-7.168-7.168V54.209a7.146,7.146,0,0,1,7.168-7.168h35.841a7.146,7.146,0,0,1,7.168,7.168Z" transform="translate(1206.08 8513.821)" fill="#420083"/><circle cx="36.5" cy="36.5" r="36.5" transform="translate(1332 8549)" fill="#420083"/><g transform="translate(-927.954 145.664)"><path d="M132.91,56.947a1.229,1.229,0,0,0-1.228-1.166H71.231A1.23,1.23,0,0,0,70,56.948c0,.021,0,.042,0,.063v47.918a1.23,1.23,0,0,0,1.229,1.23h60.451a1.229,1.229,0,0,0,1.229-1.23V57.011c0-.021,0-.042,0-.063ZM72.459,58.225h57.994v5.669H72.459ZM130.453,103.7H72.459V66.351h57.994Z" transform="translate(2194.998 8359.219)" fill="#fff"/><path d="M116.091,95.035a1.229,1.229,0,0,1,0-2.458h0a1.229,1.229,0,0,1,0,2.458Z" transform="translate(2155.177 8326.557)" fill="#fff"/><path d="M123.351,405.357h48.656a1.229,1.229,0,0,0,1.229-1.23v-4.916a1.23,1.23,0,0,0-1.229-1.23H123.351a1.229,1.229,0,0,0-1.229,1.23v4.916A1.23,1.23,0,0,0,123.351,405.357Zm47.428-2.459h-46.2V400.44h46.2Z" transform="translate(2148.733 8055.46)" fill="#fff"/><path d="M349.041,201.29h23.345a1.229,1.229,0,0,0,1.229-1.23V180.4a1.229,1.229,0,0,0-1.229-1.229H349.041a1.229,1.229,0,0,0-1.229,1.229V200.06A1.23,1.23,0,0,0,349.041,201.29Zm22.117-2.458H350.27V181.625h20.888Z" transform="translate(1948.396 8249.694)" fill="#fff"/><path d="M232.8,189h7.372a1.229,1.229,0,0,0,1.229-1.229V180.4a1.228,1.228,0,0,0-1.229-1.229H232.8a1.229,1.229,0,0,0-1.229,1.229v7.374A1.228,1.228,0,0,0,232.8,189Zm6.144-2.457h-4.915v-4.916h4.915Z" transform="translate(2051.578 8249.688)" fill="#fff"/><path d="M123.421,189h7.372a1.229,1.229,0,0,0,1.229-1.229V180.4a1.228,1.228,0,0,0-1.229-1.229h-7.372a1.229,1.229,0,0,0-1.229,1.229v7.374A1.228,1.228,0,0,0,123.421,189Zm6.144-2.457h-4.915v-4.916h4.915Z" transform="translate(2148.671 8249.688)" fill="#fff"/><path d="M232.8,298.4h7.372a1.229,1.229,0,0,0,1.229-1.23V289.8a1.229,1.229,0,0,0-1.229-1.23H232.8a1.229,1.229,0,0,0-1.229,1.23v7.374A1.23,1.23,0,0,0,232.8,298.4Zm6.144-2.458h-4.915v-4.916h4.915Z" transform="translate(2051.578 8152.582)" fill="#fff"/><path d="M123.421,298.4h7.372a1.229,1.229,0,0,0,1.229-1.23V289.8a1.229,1.229,0,0,0-1.229-1.23h-7.372a1.229,1.229,0,0,0-1.229,1.23v7.374A1.23,1.23,0,0,0,123.421,298.4Zm6.144-2.458h-4.915v-4.916h4.915Z" transform="translate(2148.671 8152.582)" fill="#fff"/><path d="M165.3,95.035a1.229,1.229,0,0,1,0-2.458h0a1.229,1.229,0,0,1,0,2.458Z" transform="translate(2111.493 8326.557)" fill="#fff"/><path d="M214.521,95.035a1.229,1.229,0,0,1,0-2.458h0a1.229,1.229,0,0,1,0,2.458Z" transform="translate(2067.805 8326.557)" fill="#fff"/></g></g></svg>