<svg xmlns="http://www.w3.org/2000/svg" width="93.636" height="105.705" viewBox="0 0 93.636 105.705"><g transform="translate(-912 -8533)"><path d="M240.24,324.575a4.613,4.613,0,0,0,4.592,4.592h35.841a4.613,4.613,0,0,0,4.592-4.592v-1.456H240.24Z" transform="translate(696.625 8270.672)" fill="#420083"/><path d="M281.233,170.8H245.391a4.613,4.613,0,0,0-4.592,4.592v23.185h45.138V175.5a4.886,4.886,0,0,0-4.7-4.7Zm-29.793,6.608h9.3v9.3h-9.3Zm24.753,15.68H251.44v-3.136h24.641v3.136Zm0-6.384H263.872v-3.36h12.321Zm0-5.936H263.872v-3.36h12.321Z" transform="translate(696.178 8392.525)" fill="#420083"/><path d="M205.524,42.672l-38.754-22.4a7.989,7.989,0,0,0-8.064,0l-38.754,22.4a8.186,8.186,0,0,0-4.032,6.944v44.8a7.911,7.911,0,0,0,4.032,6.944l38.754,22.4a8.385,8.385,0,0,0,4.032,1.12,7.309,7.309,0,0,0,4.032-1.12l38.754-22.4a8.186,8.186,0,0,0,4.032-6.944v-44.8A7.7,7.7,0,0,0,205.524,42.672ZM188.5,81.426a7.146,7.146,0,0,1-7.168,7.168H164.642v5.824h7.168a1.294,1.294,0,0,1,1.344,1.344,1.362,1.362,0,0,1-1.344,1.344H154.785a1.294,1.294,0,0,1-1.344-1.344,1.362,1.362,0,0,1,1.344-1.344h7.168V88.595H145.489a7.146,7.146,0,0,1-7.168-7.168V54.209a7.146,7.146,0,0,1,7.168-7.168h35.841a7.146,7.146,0,0,1,7.168,7.168Z" transform="translate(796.08 8513.821)" fill="#420083"/><circle cx="36.5" cy="36.5" r="36.5" transform="translate(922 8549)" fill="#420083"/><g transform="translate(-742.371 145.664)"><path d="M115.128,0H75.245A5.254,5.254,0,0,0,70,5.247V45.13a5.254,5.254,0,0,0,5.247,5.247h39.882a5.254,5.254,0,0,0,5.247-5.247V5.247A5.254,5.254,0,0,0,115.128,0Zm3.149,45.13a3.149,3.149,0,0,1-3.149,3.149H75.245A3.149,3.149,0,0,1,72.1,45.13V5.247A3.149,3.149,0,0,1,75.245,2.1h39.882a3.149,3.149,0,0,1,3.149,3.149Z" transform="translate(1606.002 8415)" fill="#fff"/><path d="M116.67,93.332h41.981v2.1H116.67Z" transform="translate(1563.529 8330.063)" fill="#fff"/><path d="M128.33,46.668h2.1v2.1h-2.1Z" transform="translate(1552.917 8372.53)" fill="#fff"/><path d="M175,46.668h2.1v2.1H175Z" transform="translate(1510.446 8372.53)" fill="#fff"/><path d="M548.33,46.668h2.1v2.1h-2.1Z" transform="translate(1170.7 8372.53)" fill="#fff"/><path d="M142.9,151.67H117.715a1.049,1.049,0,0,0-1.049,1.049v12.594a1.049,1.049,0,0,0,1.049,1.05H142.9a1.05,1.05,0,0,0,1.05-1.05V152.719a1.049,1.049,0,0,0-1.05-1.049Zm-1.049,12.594h-23.09v-10.5h23.09Z" transform="translate(1563.532 8276.974)" fill="#fff"/><path d="M443.33,151.67h7.347v2.1H443.33Z" transform="translate(1266.254 8276.974)" fill="#fff"/><path d="M513.33,291.67h2.1v2.1h-2.1Z" transform="translate(1202.552 8149.568)" fill="#fff"/><path d="M560,291.67h2.1v2.1H560Z" transform="translate(1160.08 8149.568)" fill="#fff"/><path d="M443.33,198.33h12.594v2.1H443.33Z" transform="translate(1266.254 8234.511)" fill="#fff"/><path d="M443.33,245h12.594v2.1H443.33Z" transform="translate(1266.254 8192.04)" fill="#fff"/><path d="M128.211,338.33h-10.5a1.05,1.05,0,0,0-1.049,1.05v8.4a1.049,1.049,0,0,0,1.049,1.05h10.5a1.05,1.05,0,0,0,1.05-1.05v-8.4a1.05,1.05,0,0,0-1.05-1.05Zm-1.05,8.4h-8.4v-6.3h8.4Z" transform="translate(1563.532 8107.105)" fill="#fff"/><path d="M454.877,338.33h-10.5a1.05,1.05,0,0,0-1.05,1.05v8.4a1.05,1.05,0,0,0,1.05,1.05h10.5a1.049,1.049,0,0,0,1.049-1.05v-8.4a1.049,1.049,0,0,0-1.049-1.05Zm-1.05,8.4h-8.4v-6.3h8.4Z" transform="translate(1266.253 8107.105)" fill="#fff"/><path d="M291.546,338.33H281.052a1.05,1.05,0,0,0-1.05,1.05v8.4a1.05,1.05,0,0,0,1.05,1.05h10.495a1.05,1.05,0,0,0,1.05-1.05v-8.4a1.05,1.05,0,0,0-1.05-1.05Zm-1.05,8.4h-8.4v-6.3h8.4Z" transform="translate(1414.89 8107.105)" fill="#fff"/><path d="M116.67,478.33h12.594v2.1H116.67Z" transform="translate(1563.529 7979.7)" fill="#fff"/><path d="M280,478.33h12.594v2.1H280Z" transform="translate(1414.891 7979.7)" fill="#fff"/><path d="M443.33,478.33h12.594v2.1H443.33Z" transform="translate(1266.254 7979.7)" fill="#fff"/></g></g></svg>