<svg xmlns="http://www.w3.org/2000/svg" width="215.703" height="214.613" viewBox="0 0 215.703 214.613">
  <g id="enterprise-contact" transform="translate(-78.487 -9.859)">
    <path id="Path_7651" data-name="Path 7651" d="M78.98,194.261a1.686,1.686,0,0,0,2.383,0l25.444-25.444,41.109,41.109,0,0,2.234,2.234-25.444,25.444a1.685,1.685,0,0,0,2.383,2.383l26.636-26.636a1.686,1.686,0,0,0,0-2.383l-2.238-2.238,6.832-6.833a1.593,1.593,0,0,0,.2-.295,19.347,19.347,0,0,0,20.334-4.6L195.3,180.556a269.411,269.411,0,0,0,41.51,25.627,39.52,39.52,0,0,0,17.666,4.157,40.26,40.26,0,0,0,15.965-3.316,40.833,40.833,0,0,0,22.975-25.655,6.417,6.417,0,0,0,.268-.726,11.973,11.973,0,0,0-7.431-14.749,213.365,213.365,0,0,1-33.839-15.318,11.908,11.908,0,0,0-15.949,4.112l-3.255,5.195a8.62,8.62,0,0,1-12.264,2.551c-.953-.656-1.893-1.33-2.838-2l2.328-2.329a10.045,10.045,0,0,0-7.26-17.217A10.1,10.1,0,0,0,204.53,125.7a10.113,10.113,0,0,0-13.911-13.92,10.139,10.139,0,0,0-17.318-7.071l-6.458,6.46c-.543-.7-1.091-1.4-1.628-2.118a8.618,8.618,0,0,1,2.036-12.364l5.04-3.47a11.9,11.9,0,0,0,3.424-16.106,213.116,213.116,0,0,1-16.764-33.154c-2.674-6.671-10.913-9.057-15.535-6.592A41.055,41.055,0,0,0,118.54,61.536,39.808,39.808,0,0,0,120.829,95.1a270.316,270.316,0,0,0,17.855,28.051,138.052,138.052,0,0,1-12.053,10.266l-4.664,4.664A21.118,21.118,0,0,0,117.2,160.56a1.427,1.427,0,0,0-.13.084l-6.835,6.835L108,165.242a1.686,1.686,0,0,0-2.383,0L78.982,191.877a1.684,1.684,0,0,0,0,2.383Zm171.78-40.747a216.765,216.765,0,0,0,34.38,15.563,8.581,8.581,0,0,1,5.4,10.378c-.064.138-.118.293-.261.706-.161.538-.385,1.047-.569,1.577a285.451,285.451,0,0,1-51.357-23.711l.964-1.539a8.549,8.549,0,0,1,11.442-2.973Zm-14.688,8.155.492-.785a288.863,288.863,0,0,0,51.909,23.989,37.637,37.637,0,0,1-19.371,19.06,36.474,36.474,0,0,1-30.79-.763,264.454,264.454,0,0,1-85.419-67.318l7.285-7.284a9.723,9.723,0,0,0,1.563,2.067,10.117,10.117,0,0,0,7.073,2.959,10.113,10.113,0,0,0,13.918,13.912,10.1,10.1,0,0,0,16.291,7.9,10.073,10.073,0,0,0,16.592,7.4c1.134.81,2.27,1.62,3.417,2.408a11.992,11.992,0,0,0,17.039-3.546Zm-18.016-15.528a6.772,6.772,0,0,1,0,9.585l-4.126,4.128a6.778,6.778,0,0,1-9.586-9.586l4.128-4.126A6.772,6.772,0,0,1,218.055,146.142Zm-8.843-5.508L197.66,152.186a6.942,6.942,0,0,1-9.586,0,6.785,6.785,0,0,1,0-9.585l11.555-11.555a6.778,6.778,0,1,1,9.583,9.588Zm-8.518-25a6.79,6.79,0,0,1,0,9.586l-15,15-3.448,3.448a6.778,6.778,0,0,1-9.586-9.585l18.449-18.452a6.788,6.788,0,0,1,9.586,0ZM175.687,107.1a6.783,6.783,0,0,1,9.592,9.592l-11.561,11.561a6.8,6.8,0,0,1-9.592,0,6.5,6.5,0,0,1-1.527-2.438,15.776,15.776,0,0,0,2.613-8.239ZM144.525,40.556c5.262-1.9,9.732.754,11.3,4.661A216.659,216.659,0,0,0,172.856,78.9a8.54,8.54,0,0,1-2.481,11.55l-1.17.805a285.524,285.524,0,0,1-27.43-49.574c.906-.4,1.808-.8,2.751-1.131ZM121.688,62.743a37.639,37.639,0,0,1,17.067-19.555A288.915,288.915,0,0,0,166.429,93.17l-1.078.743a11.9,11.9,0,0,0-4.964,12.5,4.925,4.925,0,0,0-6.928.765,171.465,171.465,0,0,1-12.312,13.62A267.055,267.055,0,0,1,123.779,93.47a36.451,36.451,0,0,1-2.09-30.726Zm2.661,77.721,4.481-4.506A154.032,154.032,0,0,0,156.073,109.3a1.618,1.618,0,0,1,1.189-.608,1.492,1.492,0,0,1,1.182.455,11.654,11.654,0,0,1,0,16.39c-.338.335-9.774,9.773-13.033,13.031a1.685,1.685,0,0,0,2.383,2.383l2.714-2.714a268.546,268.546,0,0,0,42.074,40.275l-16.108,16.109a16.313,16.313,0,0,1-23.039,0l-29.092-29.094a17.753,17.753,0,0,1,0-25.072Zm-6.084,23.759,3.687,3.687.014.016,32.785,32.785-5.64,5.642-36.489-36.487Z" transform="translate(0 -16.01)" fill="#420083"/>
    <path id="Path_7652" data-name="Path 7652" d="M445.137,416.539c2.829,1.66,5.678,3.291,8.565,4.869a1.685,1.685,0,1,0,1.617-2.957q-4.287-2.344-8.477-4.816a1.684,1.684,0,1,0-1.705,2.9Z" transform="translate(-220.506 -243.245)" fill="#420083"/>
    <path id="Path_7653" data-name="Path 7653" d="M490.177,440.472a30.486,30.486,0,0,0,11.835,2.372,31.089,31.089,0,0,0,12.395-2.577,1.685,1.685,0,0,0-1.338-3.094,27.643,27.643,0,0,1-21.593.188,1.686,1.686,0,1,0-1.3,3.111Z" transform="translate(-247.531 -257.49)" fill="#420083"/>
    <path id="Path_7654" data-name="Path 7654" d="M215.837,473.977a6.024,6.024,0,1,0-4.253,1.76A6.024,6.024,0,0,0,215.837,473.977Zm-6.126-2.383a2.648,2.648,0,1,1,3.744,0,2.707,2.707,0,0,1-3.744,0Z" transform="translate(-76.601 -273.569)" fill="#420083"/>
    <path id="Path_7655" data-name="Path 7655" d="M454.1,9.859H348.253a1.756,1.756,0,0,0-1.685,1.685V76.519a1.754,1.754,0,0,0,1.685,1.685H454.1a1.78,1.78,0,0,0,1.685-1.685V11.545A1.758,1.758,0,0,0,454.1,9.859Zm-5.3,3.37L403.537,45.24a4.093,4.093,0,0,1-4.725,0L353.552,13.23ZM353.554,74.835l23.051-16.3a1.684,1.684,0,1,0-1.944-2.751L349.939,73.267l0-58.468,41.339,29.239-8.508,6.016a1.684,1.684,0,0,0,1.944,2.751l9.479-6.7L396.869,48a7.471,7.471,0,0,0,8.613,0L408.16,46.1l9.479,6.7a1.684,1.684,0,1,0,1.944-2.751l-8.509-6.016L452.413,14.8V73.263L427.692,55.783a1.684,1.684,0,1,0-1.944,2.751l23.05,16.3Z" transform="translate(-161.592 0)" fill="#420083"/>
  </g>
</svg>
