<svg xmlns="http://www.w3.org/2000/svg" width="93.636" height="105.705" viewBox="0 0 93.636 105.705"><g transform="translate(-502 -8533)"><path d="M240.24,324.575a4.613,4.613,0,0,0,4.592,4.592h35.841a4.613,4.613,0,0,0,4.592-4.592v-1.456H240.24Z" transform="translate(286.625 8270.672)" fill="#420083"/><path d="M281.233,170.8H245.391a4.613,4.613,0,0,0-4.592,4.592v23.185h45.138V175.5a4.886,4.886,0,0,0-4.7-4.7Zm-29.793,6.608h9.3v9.3h-9.3Zm24.753,15.68H251.44v-3.136h24.641v3.136Zm0-6.384H263.872v-3.36h12.321Zm0-5.936H263.872v-3.36h12.321Z" transform="translate(286.178 8392.525)" fill="#420083"/><path d="M205.524,42.672l-38.754-22.4a7.989,7.989,0,0,0-8.064,0l-38.754,22.4a8.186,8.186,0,0,0-4.032,6.944v44.8a7.911,7.911,0,0,0,4.032,6.944l38.754,22.4a8.385,8.385,0,0,0,4.032,1.12,7.309,7.309,0,0,0,4.032-1.12l38.754-22.4a8.186,8.186,0,0,0,4.032-6.944v-44.8A7.7,7.7,0,0,0,205.524,42.672ZM188.5,81.426a7.146,7.146,0,0,1-7.168,7.168H164.642v5.824h7.168a1.294,1.294,0,0,1,1.344,1.344,1.362,1.362,0,0,1-1.344,1.344H154.785a1.294,1.294,0,0,1-1.344-1.344,1.362,1.362,0,0,1,1.344-1.344h7.168V88.595H145.489a7.146,7.146,0,0,1-7.168-7.168V54.209a7.146,7.146,0,0,1,7.168-7.168h35.841a7.146,7.146,0,0,1,7.168,7.168Z" transform="translate(386.08 8513.821)" fill="#420083"/><circle cx="36.5" cy="36.5" r="36.5" transform="translate(514 8549)" fill="#420083"/><g transform="translate(-2347.439 145.664)"><path d="M157.8,62.918H109.061A4.065,4.065,0,0,0,105,66.979v42.255a4.065,4.065,0,0,0,4.061,4.061H157.8a4.065,4.065,0,0,0,4.061-4.061V66.979a4.065,4.065,0,0,0-4.061-4.061Zm-48.734,2.031H157.8a2.033,2.033,0,0,1,2.031,2.031v5.847h-52.8V66.979a2.033,2.033,0,0,1,2.031-2.031Zm20.119,46.316H115.691V100.312a1.016,1.016,0,0,1,1.015-1.015h11.459a1.016,1.016,0,0,1,1.015,1.015Zm28.615,0H131.211V100.312a3.05,3.05,0,0,0-3.046-3.046H116.706a3.049,3.049,0,0,0-3.046,3.046v10.952h-4.6a2.033,2.033,0,0,1-2.031-2.031V74.855h52.8v34.378a2.033,2.033,0,0,1-2.031,2.031Z" transform="translate(2762.829 8352.082)" fill="#fff"/><path d="M174.2,106.625a1.015,1.015,0,1,1-1.015-1.015,1.015,1.015,0,0,1,1.015,1.015" transform="translate(2703.453 8314.344)" fill="#fff"/><path d="M213.611,106.625a1.015,1.015,0,1,1-1.015-1.015,1.015,1.015,0,0,1,1.015,1.015" transform="translate(2668.616 8314.344)" fill="#fff"/><path d="M253.021,106.625a1.015,1.015,0,1,1-1.015-1.015,1.015,1.015,0,0,1,1.015,1.015" transform="translate(2633.779 8314.344)" fill="#fff"/><path d="M346.875,107.641h20.1a1.015,1.015,0,1,0,0-2.031h-20.1a1.015,1.015,0,0,0,0,2.031Z" transform="translate(2549.917 8314.344)" fill="#fff"/><path d="M192.506,198.98H153.321a2.033,2.033,0,0,0-2.031,2.031v5.736a2.033,2.033,0,0,0,2.031,2.031h39.186a4.9,4.9,0,0,0,0-9.8Zm0,7.767H153.321v-5.736h39.186a2.868,2.868,0,1,1,0,5.736Z" transform="translate(2721.91 8231.808)" fill="#fff"/><path d="M425.63,331.9h-8.576a2.033,2.033,0,0,0-2.031,2.031v7.176a2.033,2.033,0,0,0,2.031,2.031h8.576a2.033,2.033,0,0,0,2.031-2.031v-7.176a2.033,2.033,0,0,0-2.031-2.031Zm-8.576,9.207v-7.176h8.576v7.176Z" transform="translate(2488.778 8114.311)" fill="#fff"/></g></g></svg>